<svg xmlns="http://www.w3.org/2000/svg" xmlns:svg="http://www.w3.org/2000/svg" id="svg8" width="684.51" height="400.767" version="1.1" viewBox="0 0 181.11 106.036"><defs id="defs2"><marker id="marker5766" orient="auto" refX="0" refY="0" style="overflow:visible"><path id="path5764" d="M 8.7185878,4.0337352 -2.2072895,0.01601326 8.7185884,-4.0017078 c -1.7454984,2.3720609 -1.7354408,5.6174519 -6e-7,8.035443 z" transform="matrix(1.1,0,0,1.1,1.1,0)" style="fill:#000;fill-opacity:1;fill-rule:evenodd;stroke:#000;stroke-width:.625;stroke-linejoin:round;stroke-opacity:1"/></marker><marker id="marker5510" orient="auto" refX="0" refY="0" style="overflow:visible"><path id="path5508" d="M 8.7185878,4.0337352 -2.2072895,0.01601326 8.7185884,-4.0017078 c -1.7454984,2.3720609 -1.7354408,5.6174519 -6e-7,8.035443 z" transform="matrix(-1.1,0,0,-1.1,-1.1,0)" style="fill:#000;fill-opacity:1;fill-rule:evenodd;stroke:#000;stroke-width:.625;stroke-linejoin:round;stroke-opacity:1"/></marker><marker id="marker5311" orient="auto" refX="0" refY="0" style="overflow:visible"><path id="path5309" d="M 8.7185878,4.0337352 -2.2072895,0.01601326 8.7185884,-4.0017078 c -1.7454984,2.3720609 -1.7354408,5.6174519 -6e-7,8.035443 z" transform="matrix(1.1,0,0,1.1,1.1,0)" style="fill:#000;fill-opacity:1;fill-rule:evenodd;stroke:#000;stroke-width:.625;stroke-linejoin:round;stroke-opacity:1"/></marker><marker id="Arrow2Lstart" orient="auto" refX="0" refY="0" style="overflow:visible"><path id="path4546" d="M 8.7185878,4.0337352 -2.2072895,0.01601326 8.7185884,-4.0017078 c -1.7454984,2.3720609 -1.7354408,5.6174519 -6e-7,8.035443 z" transform="matrix(1.1,0,0,1.1,1.1,0)" style="fill:#000;fill-opacity:1;fill-rule:evenodd;stroke:#000;stroke-width:.625;stroke-linejoin:round;stroke-opacity:1"/></marker><marker id="Arrow2Lend" orient="auto" refX="0" refY="0" style="overflow:visible"><path id="path4549" d="M 8.7185878,4.0337352 -2.2072895,0.01601326 8.7185884,-4.0017078 c -1.7454984,2.3720609 -1.7354408,5.6174519 -6e-7,8.035443 z" transform="matrix(-1.1,0,0,-1.1,-1.1,0)" style="fill:#000;fill-opacity:1;fill-rule:evenodd;stroke:#000;stroke-width:.625;stroke-linejoin:round;stroke-opacity:1"/></marker><marker id="Arrow2Lend-5" orient="auto" refX="0" refY="0" style="overflow:visible"><path id="path4549-1" d="M 8.7185878,4.0337352 -2.2072895,0.01601326 8.7185884,-4.0017078 c -1.7454984,2.3720609 -1.7354408,5.6174519 -6e-7,8.035443 z" transform="matrix(-1.1,0,0,-1.1,-1.1,0)" style="fill:#000;fill-opacity:1;fill-rule:evenodd;stroke:#000;stroke-width:.625;stroke-linejoin:round;stroke-opacity:1"/></marker><marker id="Arrow2Lend-2" orient="auto" refX="0" refY="0" style="overflow:visible"><path id="path4549-5" d="M 8.7185878,4.0337352 -2.2072895,0.01601326 8.7185884,-4.0017078 c -1.7454984,2.3720609 -1.7354408,5.6174519 -6e-7,8.035443 z" transform="matrix(-1.1,0,0,-1.1,-1.1,0)" style="fill:#000;fill-opacity:1;fill-rule:evenodd;stroke:#000;stroke-width:.625;stroke-linejoin:round;stroke-opacity:1"/></marker></defs><metadata id="metadata5"/><g id="layer1" transform="translate(-11.639556,-32.197678)"><rect style="fill:#000;fill-opacity:0;stroke:#000;stroke-width:.5;stroke-miterlimit:4;stroke-dasharray:none;stroke-dashoffset:0;stroke-opacity:1" id="rect4485" width="28.865" height="26.192" x="18.76" y="111.792" rx="1.89" ry="1.89"/><text style="font-style:normal;font-weight:400;font-size:10.58333302px;line-height:6.61458302px;font-family:sans-serif;letter-spacing:0;word-spacing:0;fill:#000;fill-opacity:1;stroke:none;stroke-width:.26458332" id="text4489" x="22.418" y="128.368" xml:space="preserve"><tspan id="tspan4487" x="22.418" y="128.368" style="stroke-width:.26458332">CPU</tspan></text><rect style="fill:#000;fill-opacity:0;stroke:#000;stroke-width:.73181146;stroke-miterlimit:4;stroke-dasharray:none;stroke-dashoffset:0;stroke-opacity:1" id="rect4485-5" width="62.194" height="26.041" x="130.19" y="50.012" rx="4.072" ry="1.879"/><text style="font-style:normal;font-weight:400;font-size:10.58333302px;line-height:6.61458349px;font-family:sans-serif;letter-spacing:0;word-spacing:0;fill:#000;fill-opacity:1;stroke:none;stroke-width:.26458332" id="text4489-4" x="139.397" y="65.79" xml:space="preserve"><tspan id="tspan4487-5" x="139.397" y="65.79" style="stroke-width:.26458332">Memory</tspan></text><path style="fill:none;stroke:#000;stroke-width:.26499999;stroke-linecap:butt;stroke-linejoin:miter;stroke-miterlimit:4;stroke-dasharray:none;stroke-opacity:1;marker-start:url(#marker5311);marker-end:url(#Arrow2Lend)" id="path4526" d="m 62.177083,52.260417 h 67.468747 v 0"/><path style="fill:none;stroke:#000;stroke-width:.26499999;stroke-linecap:butt;stroke-linejoin:miter;stroke-miterlimit:4;stroke-dasharray:none;stroke-opacity:1;marker-end:url(#Arrow2Lend-5)" id="path4526-3" d="m 62.17709,61.520833 h 67.46874 v 0"/><path style="fill:none;stroke:#000;stroke-width:.26499999;stroke-linecap:butt;stroke-linejoin:miter;stroke-miterlimit:4;stroke-dasharray:none;stroke-opacity:1;marker-start:url(#Arrow2Lstart);marker-end:url(#Arrow2Lend-2)" id="path4526-8" d="m 62.17709,70.78125 h 67.46874 v 0"/><text style="font-style:normal;font-weight:400;font-size:5.45948792px;line-height:3.41218019px;font-family:sans-serif;letter-spacing:0;word-spacing:0;fill:#000;fill-opacity:1;stroke:none;stroke-width:.1364872" id="text4489-9" x="87.062" y="50.788" xml:space="preserve"><tspan id="tspan4487-8" x="87.062" y="50.788" style="stroke-width:.1364872">Control</tspan></text><text style="font-style:normal;font-weight:400;font-size:5.45948792px;line-height:3.41218019px;font-family:sans-serif;letter-spacing:0;word-spacing:0;fill:#000;fill-opacity:1;stroke:none;stroke-width:.1364872" id="text4489-9-6" x="86.072" y="59.835" xml:space="preserve"><tspan id="tspan4487-8-0" x="86.072" y="59.835" style="stroke-width:.1364872">Address</tspan></text><text style="font-style:normal;font-weight:400;font-size:5.45948792px;line-height:3.41218019px;font-family:sans-serif;letter-spacing:0;word-spacing:0;fill:#000;fill-opacity:1;stroke:none;stroke-width:.1364872" id="text4489-9-6-1" x="90.296" y="69.27" xml:space="preserve"><tspan id="tspan4487-8-0-2" x="90.296" y="69.27" style="stroke-width:.1364872">Data</tspan></text><rect style="fill:#000;fill-opacity:0;stroke:#000;stroke-width:.26499999;stroke-linejoin:miter;stroke-miterlimit:1;stroke-dasharray:1.58999992,1.58999992;stroke-dashoffset:0;stroke-opacity:1" id="rect5463" width="50.271" height="41.01" x="71.438" y="39.031" rx="1.89" ry="1.89"/><text style="font-style:normal;font-weight:400;font-size:5.45948792px;line-height:3.41218019px;font-family:sans-serif;letter-spacing:0;word-spacing:0;fill:#000;fill-opacity:1;stroke:none;stroke-width:.1364872" id="text4489-9-4" x="89.279" y="36.25" xml:space="preserve"><tspan id="tspan4487-8-5" x="89.279" y="36.25" style="stroke-width:.1364872">System Bus</tspan></text><rect style="fill:#000;fill-opacity:0;stroke:#000;stroke-width:.85355341;stroke-miterlimit:4;stroke-dasharray:none;stroke-dashoffset:0;stroke-opacity:1" id="rect4485-6" width="49.276" height="44.713" x="12.066" y="40.667" rx="3.226" ry="3.226"/><text style="font-style:normal;font-weight:400;font-size:10.58333302px;line-height:6.61458349px;font-family:sans-serif;letter-spacing:0;word-spacing:0;fill:#000;fill-opacity:1;stroke:none;stroke-width:.26458332" id="text4489-0" x="24.457" y="66.876" xml:space="preserve"><tspan id="tspan4487-2" x="24.457" y="66.876" style="stroke-width:.26458332">MCH</tspan></text><path style="fill:none;stroke:#000;stroke-width:.26037216px;stroke-linecap:butt;stroke-linejoin:miter;stroke-opacity:1;marker-start:url(#marker5766);marker-end:url(#marker5510)" id="path5506" d="M 33.3375,86.391667 V 110.73333"/></g></svg>