<svg xmlns="http://www.w3.org/2000/svg" xmlns:svg="http://www.w3.org/2000/svg" id="svg5235" width="44.392" height="78.498" version="1.1" viewBox="0 0 11.745 20.769"><defs id="defs5229"><filter style="color-interpolation-filters:sRGB" id="filter4562"><feGaussianBlur id="feGaussianBlur4564" result="fbSourceGraphic" stdDeviation="5"/><feGaussianBlur id="feGaussianBlur4566" in="SourceGraphic" result="result1" stdDeviation=".01"/><feComposite id="feComposite4568" in="fbSourceGraphic" in2="result1" k1="0" k2=".5" k3=".5" k4="0" operator="arithmetic" result="result2"/><feBlend id="feBlend4570" in2="fbSourceGraphic" mode="normal" result="result3"/></filter></defs><metadata id="metadata5232"/><g id="layer1" transform="translate(-155.54483,-67.352833)"><path style="opacity:1;fill:#4d4d4d;fill-opacity:1;fill-rule:evenodd;stroke:none;stroke-width:1;stroke-miterlimit:4;stroke-dasharray:1,1;stroke-dashoffset:0;stroke-opacity:.99479167;filter:url(#filter4562)" id="rect4539" d="m 1888.5471,565.65253 h 75.6976 c 3.8706,0 6.9866,3.11601 6.9866,6.98657 v 138.45783 c 0,3.87057 -3.116,6.98658 -6.9866,6.98658 h -75.6976 c -3.8705,0 -6.9866,-3.11601 -6.9866,-6.98658 V 572.6391 c 0,-3.87056 3.1161,-6.98657 6.9866,-6.98657 z" transform="matrix(0.10915206,0,0,0.11354507,-48.8526,4.8565558)"/><rect id="rect4172" width="9.506" height="17.015" x="156.672" y="69.236" ry=".78" style="opacity:1;fill:#fff;fill-opacity:1;fill-rule:evenodd;stroke:none;stroke-width:.21456559;stroke-miterlimit:4;stroke-dasharray:.21456557,.21456557;stroke-dashoffset:0;stroke-opacity:.99479167"/><rect id="rect4174" width="8.953" height="13.606" x="156.966" y="70.794" style="opacity:1;fill:#ccc;fill-opacity:1;fill-rule:evenodd;stroke:none;stroke-width:.21456559;stroke-miterlimit:4;stroke-dasharray:.21456557,.21456557;stroke-dashoffset:0;stroke-opacity:.99479167"/><rect style="opacity:1;fill:#333;fill-opacity:1;fill-rule:evenodd;stroke:none;stroke-width:.21238615;stroke-miterlimit:4;stroke-dasharray:.21238613,.21238613000000001;stroke-dashoffset:0;stroke-opacity:.99479167" id="rect4648" width="8.73" height="13.244" x="157.067" y="70.955"/><rect id="rect4176" width=".269" height=".266" x="159.594" y="69.767" ry=".118" style="opacity:1;fill:#b3b3b3;fill-opacity:1;fill-rule:evenodd;stroke:none;stroke-width:.21456559;stroke-miterlimit:4;stroke-dasharray:none;stroke-dashoffset:0;stroke-opacity:.99479167"/><rect id="rect4178" width="2.039" height=".233" x="160.394" y="69.79" ry=".049" style="opacity:1;fill:#b3b3b3;fill-opacity:1;fill-rule:evenodd;stroke:none;stroke-width:.21456559;stroke-miterlimit:4;stroke-dasharray:.21456557,.21456557;stroke-dashoffset:0;stroke-opacity:.99479167"/><path style="opacity:1;fill:#b3b3b3;fill-opacity:1;fill-rule:evenodd;stroke:none;stroke-width:.46367621;stroke-miterlimit:4;stroke-dasharray:none;stroke-dashoffset:0;stroke-opacity:.99479167" id="path4188" d="m 161.42509,84.763057 a 0.62913902,0.62913902 0 0 0 -0.62919,0.629178 0.62913902,0.62913902 0 0 0 0.62919,0.629178 0.62913902,0.62913902 0 0 0 0.62917,-0.629178 0.62913902,0.62913902 0 0 0 -0.62917,-0.629178 z m 0,0.178132 a 0.45108081,0.45108081 0 0 1 0.45103,0.451046 0.45108081,0.45108081 0 0 1 -0.45103,0.451047 0.45108081,0.45108081 0 0 1 -0.45104,-0.451047 0.45108081,0.45108081 0 0 1 0.45104,-0.451046 z"/></g></svg>