<svg xmlns="http://www.w3.org/2000/svg" xmlns:svg="http://www.w3.org/2000/svg" id="svg1528" width="113.942" height="118.857" version="1.1" viewBox="0 0 30.147 31.448"><metadata id="metadata1525"/><g id="layer1" transform="translate(-95.463869,-66.774703)"><g id="g20" transform="matrix(0.68364389,0,0,0.68364389,94.129959,66.091059)" style="fill:#f4f6f8;stroke:#4d4d4d;stroke-linecap:round;stroke-linejoin:round"><path id="path22" d="m 7.75,36.5 c -1.25,0 -2,0.3 -2.5,1.5 l -2.5,6 C 1.9,46 3,46.5 4,46.5 h 40 c 1,0 2.1,-0.5 1.25,-2.5 l -2.5,-6 c -0.5,-1.2 -1.25,-1.5 -2.5,-1.5 z" style="stroke:#4d4d4d"/><path id="path24" d="m 14.5,29.5 -1,3 c -0.5,1.5 0,2 1.5,2 h 18 c 1.5,0 2,-0.5 1.5,-2 l -1,-3 z" style="stroke:#4d4d4d"/><path id="path26" d="m 8,38.5 -2,6 h 36 l -2,-6 z" style="stroke:#4d4d4d"/><path id="path28" d="m 37.5,38.5 v 6 m -3,-6 v 6 m -3,-6 v 6 m -3,-6 v 3 m -3,-3 v 3 m -3,-3 v 3 m -3,-3 v 3 m -3,-3 v 3 m -3,-3 v 6 m -3,-6 v 6 M 7,41.5 h 34" style="stroke:#4d4d4d"/><rect id="rect30" width="9" height="4" x="19.5" y="28.5" style="stroke:#4d4d4d"/><rect id="rect32" width="39" height="29" x="4.5" y="1.5" rx="2" ry="2" style="stroke:#4d4d4d"/><rect id="rect34" width="33" height="22" x="7.5" y="4.5" rx="1" ry="1" style="stroke:#4d4d4d"/></g></g></svg>