<svg xmlns="http://www.w3.org/2000/svg" xmlns:svg="http://www.w3.org/2000/svg" id="svg2" width="739.452" height="780.163" version="1.0"><metadata id="metadata60"/><defs id="defs4"><marker id="Arrow2Lend" orient="auto" refX="0" refY="0" style="overflow:visible"><path id="path4726" d="M 8.7185878,4.0337352 -2.2072895,0.01601326 8.7185884,-4.0017078 c -1.7454984,2.3720609 -1.7354408,5.6174519 -6e-7,8.035443 z" transform="matrix(-1.1,0,0,-1.1,-1.1,0)" style="font-size:12px;fill-rule:evenodd;stroke-width:.625;stroke-linejoin:round"/></marker><marker id="Arrow1Mend" orient="auto" refX="0" refY="0" style="overflow:visible"><path id="path4738" d="M 0,0 5,-5 -12.5,0 5,5 Z" transform="matrix(-0.4,0,0,-0.4,-4,0)" style="fill-rule:evenodd;stroke:#000;stroke-width:1.00000003pt;marker-start:none"/></marker><marker id="Arrow2Mend" orient="auto" refX="0" refY="0" style="overflow:visible"><path id="path4720" d="M 8.7185878,4.0337352 -2.2072895,0.01601326 8.7185884,-4.0017078 c -1.7454984,2.3720609 -1.7354408,5.6174519 -6e-7,8.035443 z" transform="scale(-0.6)" style="font-size:12px;fill-rule:evenodd;stroke-width:.625;stroke-linejoin:round"/></marker><marker id="TriangleOutL" orient="auto" refX="0" refY="0" style="overflow:visible"><path id="path4649" d="M 5.77,0 -2.88,5 V -5 Z" transform="scale(0.8)" style="fill-rule:evenodd;stroke:#000;stroke-width:1.00000003pt;marker-start:none"/></marker><linearGradient id="linearGradient3133"><stop id="stop3135" offset="0" style="stop-color:#00f;stop-opacity:1"/><stop id="stop3137" offset="1" style="stop-color:#00f;stop-opacity:0"/></linearGradient></defs><g id="layer1" transform="translate(-12.967129,-116.09617)"><g id="g2640" transform="translate(0,18)"><g id="g5175"><path id="path3581" d="m 613.625,724.53125 c -1.0269,0 -1.85938,0.83247 -1.85938,1.85937 0,1.02691 0.83248,1.85938 1.85938,1.85938 9.27501,-0.015 17.07758,1.88353 22.40625,5.40625 5.32867,3.52272 8.32135,8.48587 8.3125,15.40625 -0.0177,13.84075 -13.07376,35.84232 -47.96875,64.4375 -0.57933,0.39505 -0.88555,1.08364 -0.79088,1.77842 0.0947,0.69478 0.57399,1.27634 1.23789,1.50197 0.66391,0.22564 1.39832,0.0566 1.89674,-0.43664 35.25441,-28.8897 49.29195,-51.17892 49.3125,-67.25 0.0103,-8.03554 -3.75096,-14.4414 -9.9375,-18.53125 -6.18654,-4.08985 -14.68986,-6.04707 -24.46875,-6.03125 z" style="fill:#000;fill-opacity:1;fill-rule:evenodd;stroke:none;stroke-width:3.70000005;stroke-linecap:round;stroke-linejoin:miter;stroke-miterlimit:3.70000005;stroke-dasharray:none;stroke-opacity:1"/><path id="path5181" d="m 596.55809,726.41912 25.58002,-14.8414 0.0479,29.59996 z" style="fill-rule:evenodd;stroke:#000;stroke-width:.80000004pt;marker-start:none"/></g><g id="g5167"><path id="path3583" d="m 615.53125,537.40625 c -0.68244,0.0129 -1.30234,0.40047 -1.61279,1.00835 -0.31044,0.60788 -0.26099,1.3373 0.12866,1.89771 0.38965,0.56041 1.0562,0.86077 1.73413,0.78144 8.52393,-0.56665 25.76345,5.92433 42.65625,19 16.8928,13.07567 33.6608,32.58326 42.5,57.625 8.8392,25.04174 9.83917,55.62655 -4.90625,91.1875 -14.74542,35.56095 -45.29562,76.09843 -99.65625,120.6875 -0.79391,0.64721 -0.91283,1.81547 -0.26563,2.60938 0.64721,0.7939 1.81547,0.91283 2.60938,0.26562 54.68495,-44.85509 85.66198,-85.84444 100.71875,-122.15625 15.05677,-36.31181 14.12633,-67.95731 5,-93.8125 -9.12633,-25.85519 -26.35396,-45.90274 -43.71875,-59.34375 -17.36479,-13.44101 -34.63746,-20.45135 -45.1875,-19.75 z" style="fill:#000;fill-opacity:1;fill-rule:evenodd;stroke:none;stroke-width:3.70000005;stroke-linecap:round;stroke-linejoin:miter;stroke-miterlimit:3.70000005;stroke-dasharray:none;stroke-opacity:1"/><path id="path5173" d="m 598.60784,540.39306 24.56591,-16.46576 1.96341,29.53481 z" style="fill-rule:evenodd;stroke:#000;stroke-width:.80000004pt;marker-start:none"/></g><g id="g5159"><path id="path3585" d="m 615.5,404.59375 c -1.0269,0.0259 -1.83839,0.87935 -1.8125,1.90625 0.0259,1.0269 0.87935,1.83839 1.90625,1.8125 16.01372,0.47321 41.70508,14.86664 65.96875,39.75 24.26367,24.88336 47.27178,60.09054 59.03125,101.75 23.51894,83.31891 2.4281,192.47953 -144.15625,297.8125 -0.57857,0.36834 -0.90591,1.02652 -0.85053,1.71015 0.0554,0.68363 0.48441,1.28053 1.11473,1.55093 0.63033,0.27039 1.35851,0.16991 1.89205,-0.26108 147.43514,-105.94433 169.4704,-217.11565 145.5625,-301.8125 -11.95395,-42.34842 -35.27243,-78.04874 -59.9375,-103.34375 -24.66507,-25.29501 -50.49841,-40.34213 -68.53125,-40.875 -0.0625,-0.003 -0.12504,-0.003 -0.1875,0 z" style="fill:#000;fill-opacity:1;fill-rule:evenodd;stroke:none;stroke-width:3.70000005;stroke-linecap:round;stroke-linejoin:miter;stroke-miterlimit:3.70000005;stroke-opacity:1"/><path id="path5165" d="m 598.56551,405.95282 26.02998,-14.03727 -0.8743,29.58708 z" style="fill-rule:evenodd;stroke:#000;stroke-width:.80000004pt;marker-start:none"/></g></g><g id="g2592" transform="translate(0,18)"><rect id="rect2160" width="434.628" height="100.608" x="162.032" y="98.596" style="font-size:36px;fill:#fff;fill-opacity:1;fill-rule:evenodd;stroke:#000;stroke-width:1px;stroke-linecap:butt;stroke-linejoin:miter;stroke-opacity:1"/><rect id="rect3149" width="434.628" height="100.608" x="162.032" y="203.991" style="font-size:36px;fill:#fff;fill-opacity:1;fill-rule:evenodd;stroke:#000;stroke-width:1px;stroke-linecap:butt;stroke-linejoin:miter;stroke-opacity:1"/><rect id="rect3151" width="434.628" height="100.608" x="162.032" y="777.151" style="font-size:36px;fill:#fff;fill-opacity:1;fill-rule:evenodd;stroke:#000;stroke-width:1px;stroke-linecap:butt;stroke-linejoin:miter;stroke-opacity:1"/><rect id="rect3153" width="434.368" height="159.708" x="162.161" y="309.517" style="font-size:36px;fill:#fff;fill-opacity:1;fill-rule:evenodd;stroke:#000;stroke-width:1.25955236px;stroke-linecap:butt;stroke-linejoin:miter;stroke-opacity:1"/><rect id="rect3155" width="434.51" height="125.643" x="162.09" y="474.2" style="font-size:36px;fill:#fff;fill-opacity:1;fill-rule:evenodd;stroke:#000;stroke-width:1.11736131px;stroke-linecap:butt;stroke-linejoin:miter;stroke-opacity:1"/><rect id="rect3157" width="434.574" height="111.622" x="162.058" y="660.715" style="font-size:36px;fill:#fff;fill-opacity:1;fill-rule:evenodd;stroke:#000;stroke-width:1.0532496px;stroke-linecap:butt;stroke-linejoin:miter;stroke-opacity:1"/><text id="text5129" x="378.458" y="638.715" xml:space="preserve" style="font-style:normal;font-variant:normal;font-weight:400;font-stretch:normal;font-size:36px;line-height:125%;font-family:'Bitstream Vera Sans';text-align:center;writing-mode:lr-tb;text-anchor:middle"><tspan id="tspan5131" x="378.458" y="638.715">...</tspan></text><text id="text5133" x="376.104" y="727.509" xml:space="preserve" style="font-style:normal;font-variant:normal;font-weight:400;font-stretch:normal;font-size:36px;line-height:125%;font-family:'Bitstream Vera Sans';text-align:center;writing-mode:lr-tb;text-anchor:middle"><tspan id="tspan5135" x="376.104" y="727.509">.data</tspan></text><text id="text5137" x="376.104" y="548.004" xml:space="preserve" style="font-style:normal;font-variant:normal;font-weight:400;font-stretch:normal;font-size:36px;line-height:125%;font-family:'Bitstream Vera Sans';text-align:center;writing-mode:lr-tb;text-anchor:middle"><tspan id="tspan5139" x="376.104" y="548.004">.rodata</tspan></text><text id="text5141" x="374.767" y="402.67" xml:space="preserve" style="font-style:normal;font-variant:normal;font-weight:400;font-stretch:normal;font-size:36px;line-height:125%;font-family:'Bitstream Vera Sans';text-align:center;writing-mode:lr-tb;text-anchor:middle"><tspan id="tspan5143" x="374.767" y="402.67">.text</tspan></text><text id="text5145" x="390.973" y="259.242" xml:space="preserve" style="font-style:normal;font-variant:normal;font-weight:400;font-stretch:normal;font-size:36px;line-height:125%;font-family:'Bitstream Vera Sans';text-align:center;writing-mode:lr-tb;text-anchor:middle"><tspan id="tspan5147" x="390.973" y="259.242">Program header table</tspan></text><text id="text5149" x="374.474" y="159.883" xml:space="preserve" style="font-style:normal;font-variant:normal;font-weight:400;font-stretch:normal;font-size:36px;line-height:125%;font-family:'Bitstream Vera Sans';text-align:center;writing-mode:lr-tb;text-anchor:middle"><tspan id="tspan5151" x="374.474" y="159.883">ELF header</tspan></text><text id="text5153" x="376.163" y="842.335" xml:space="preserve" style="font-style:normal;font-variant:normal;font-weight:400;font-stretch:normal;font-size:36px;line-height:125%;font-family:'Bitstream Vera Sans';text-align:center;writing-mode:lr-tb;text-anchor:middle"><tspan id="tspan5155" x="376.163" y="842.335">Section header table</tspan></text></g><g id="g2628" transform="translate(0,9.9513409)" style="font-size:40px"><g id="g5191"><path id="path4760" d="m 158.59375,240.46875 c -0.41718,0.0247 -0.8137,0.18993 -1.125,0.46875 C 12.232118,366.00238 -1.236628,475.64394 22.09375,553.75 c 23.330378,78.10606 83.125,124.6875 83.125,124.6875 0.81117,0.62995 1.97943,0.48304 2.60938,-0.32812 0.62994,-0.81117 0.48304,-1.97943 -0.32813,-2.60938 0,0 -58.894345,-45.98187 -81.84375,-122.8125 -22.9494052,-76.83063 -10.265095,-184.49394 134.25,-308.9375 0.62949,-0.5106 0.85335,-1.37149 0.55232,-2.12405 -0.30103,-0.75257 -1.05684,-1.22158 -1.86482,-1.1572 z" style="font-size:40px;fill:#000;fill-opacity:1;fill-rule:evenodd;stroke:none;stroke-width:3.70000005;stroke-linecap:round;stroke-linejoin:miter;stroke-miterlimit:3.70000005;stroke-dasharray:none;stroke-opacity:1"/><path id="path5197" d="m 119.83906,687.47222 -29.29214,-4.07126 18.20002,-23.34351 z" style="fill-rule:evenodd;stroke:#000;stroke-width:.80000004pt;marker-start:none"/></g><g id="g5183"><path id="path4764" d="m 160.1875,264.53125 c -0.34774,0.0537 -0.67296,0.20549 -0.9375,0.4375 -85.733319,70.60392 -102.946173,117.4167 -98,147.09375 4.946173,29.67705 32.03125,41.15625 32.03125,41.15625 0.614402,0.29003 1.338339,0.21998 1.885739,-0.18246 0.547399,-0.40245 0.83019,-1.07254 0.736623,-1.74548 -0.09357,-0.67294 -0.548436,-1.24047 -1.184862,-1.47831 0,0 -25.200893,-10.6741 -29.8125,-38.34375 -4.611607,-27.66965 11.386823,-73.40863 96.6875,-143.65625 0.65329,-0.51888 0.8785,-1.41079 0.54986,-2.17762 -0.32864,-0.76682 -1.12982,-1.21885 -1.95611,-1.10363 z" style="font-size:40px;fill:#000;fill-opacity:1;fill-rule:evenodd;stroke:none;stroke-width:3.70000005;stroke-linecap:round;stroke-linejoin:miter;stroke-miterlimit:3.70000005;stroke-dasharray:none;stroke-opacity:1"/><path id="path5189" d="m 109.73853,458.16544 -29.34712,3.65397 11.533344,-27.26063 z" style="fill-rule:evenodd;stroke:#000;stroke-width:.80000004pt;marker-start:none"/></g><text id="text5113" x="171.419" y="523.986" transform="scale(0.7092835,1.4098734)" xml:space="preserve" style="font-style:normal;font-variant:normal;font-weight:400;font-stretch:normal;font-size:130.87646484px;line-height:125%;font-family:'Bitstream Charter';text-align:start;writing-mode:lr-tb;text-anchor:start"><tspan id="tspan5115" x="171.419" y="523.986">{</tspan></text></g><text id="text5121" x="247.66" y="268.906" transform="scale(0.4931424,2.0278118)" xml:space="preserve" style="font-style:normal;font-variant:normal;font-weight:400;font-stretch:normal;font-size:148.37582397px;line-height:125%;font-family:'Bitstream Charter';text-align:start;writing-mode:lr-tb;text-anchor:start"><tspan id="tspan5123" x="247.66" y="268.906">{</tspan></text></g></svg>