<svg xmlns="http://www.w3.org/2000/svg" xmlns:cc="http://web.resource.org/cc/" xmlns:svg="http://www.w3.org/2000/svg" id="svg2" width="384" height="413.333"><metadata id="metadata7"/><g id="layer1"><g id="g1572" transform="translate(-176.3828,-393.1287)"><g id="g6533" transform="matrix(0.728806,0.000000,0.000000,0.728806,-35.39412,229.7884)"><path style="opacity:1;color:#000;fill:#f5f5ff;fill-opacity:1;fill-rule:evenodd;stroke:#000;stroke-width:3;stroke-linecap:butt;stroke-linejoin:miter;marker:none;marker-start:none;marker-mid:none;marker-end:none;stroke-miterlimit:4;stroke-dasharray:none;stroke-dashoffset:0;stroke-opacity:1;visibility:visible;display:inline;overflow:visible" id="path2780" d="M 627.00000 584.36218 A 140.00000 140.00000 0 1 1 347.00000,584.36218 A 140.00000 140.00000 0 1 1 627.00000 584.36218 z" transform="translate(-16.50031,-169.3715)"/><path style="opacity:1;color:#000;fill:none;fill-opacity:1;fill-rule:evenodd;stroke:#000;stroke-width:4.6616497;stroke-linecap:butt;stroke-linejoin:miter;marker:none;marker-start:none;marker-mid:none;marker-end:none;stroke-miterlimit:1;stroke-dasharray:none;stroke-dashoffset:0;stroke-opacity:1;visibility:visible;display:inline;overflow:visible" id="path2778" d="M 572.00000 582.36218 A 85.000000 85.000000 0 1 1 402.00000,582.36218 A 85.000000 85.000000 0 1 1 572.00000 582.36218 z" transform="matrix(0.146199,0.000000,0.000000,0.146729,399.3008,329.5413)"/><path style="opacity:1;color:#000;fill:none;fill-opacity:1;fill-rule:evenodd;stroke:#000;stroke-width:1;stroke-linecap:butt;stroke-linejoin:miter;marker:none;marker-start:none;marker-mid:none;marker-end:none;stroke-miterlimit:4;stroke-dasharray:none;stroke-dashoffset:0;stroke-opacity:1;visibility:visible;display:inline;overflow:visible" id="path2784" d="M 572.00000 582.36218 A 85.000000 85.000000 0 1 1 402.00000,582.36218 A 85.000000 85.000000 0 1 1 572.00000 582.36218 z" transform="matrix(0.292398,0.000000,0.000000,0.293185,328.1019,244.2508)"/><path style="opacity:1;color:#000;fill:none;fill-opacity:1;fill-rule:evenodd;stroke:#000;stroke-width:1;stroke-linecap:butt;stroke-linejoin:miter;marker:none;marker-start:none;marker-mid:none;marker-end:none;stroke-miterlimit:4;stroke-dasharray:none;stroke-dashoffset:0;stroke-opacity:1;visibility:visible;display:inline;overflow:visible" id="path2786" d="M 572.00000 582.36218 A 85.000000 85.000000 0 1 1 402.00000,582.36218 A 85.000000 85.000000 0 1 1 572.00000 582.36218 z" transform="matrix(0.438594,0.000000,0.000000,0.438599,256.9044,159.5672)"/><path style="opacity:1;color:#000;fill:none;fill-opacity:1;fill-rule:evenodd;stroke:#000;stroke-width:1;stroke-linecap:butt;stroke-linejoin:miter;marker:none;marker-start:none;marker-mid:none;marker-end:none;stroke-miterlimit:4;stroke-dasharray:none;stroke-dashoffset:0;stroke-opacity:1;visibility:visible;display:inline;overflow:visible" id="path2788" d="M 572.00000 582.36218 A 85.000000 85.000000 0 1 1 402.00000,582.36218 A 85.000000 85.000000 0 1 1 572.00000 582.36218 z" transform="matrix(0.584795,0.000000,0.000000,0.585601,185.7045,73.95880)"/><path style="opacity:1;color:#000;fill:none;fill-opacity:1;fill-rule:evenodd;stroke:#000;stroke-width:1;stroke-linecap:butt;stroke-linejoin:miter;marker:none;marker-start:none;marker-mid:none;marker-end:none;stroke-miterlimit:4;stroke-dasharray:none;stroke-dashoffset:0;stroke-opacity:1;visibility:visible;display:inline;overflow:visible" id="path2790" d="M 572.00000 582.36218 A 85.000000 85.000000 0 1 1 402.00000,582.36218 A 85.000000 85.000000 0 1 1 572.00000 582.36218 z" transform="matrix(0.730994,0.000000,0.000000,0.731615,114.5056,-11.07420)"/><path style="opacity:1;color:#000;fill:none;fill-opacity:1;fill-rule:evenodd;stroke:#000;stroke-width:1;stroke-linecap:butt;stroke-linejoin:miter;marker:none;marker-start:none;marker-mid:none;marker-end:none;stroke-miterlimit:4;stroke-dasharray:none;stroke-dashoffset:0;stroke-opacity:1;visibility:visible;display:inline;overflow:visible" id="path2792" d="M 572.00000 582.36218 A 85.000000 85.000000 0 1 1 402.00000,582.36218 A 85.000000 85.000000 0 1 1 572.00000 582.36218 z" transform="matrix(0.877193,0.000000,0.000000,0.877518,43.30670,-96.04260)"/><path style="opacity:1;color:#000;fill:none;fill-opacity:1;fill-rule:evenodd;stroke:#000;stroke-width:1;stroke-linecap:butt;stroke-linejoin:miter;marker:none;marker-start:none;marker-mid:none;marker-end:none;stroke-miterlimit:4;stroke-dasharray:none;stroke-dashoffset:0;stroke-opacity:1;visibility:visible;display:inline;overflow:visible" id="path2794" d="M 572.00000 582.36218 A 85.000000 85.000000 0 1 1 402.00000,582.36218 A 85.000000 85.000000 0 1 1 572.00000 582.36218 z" transform="matrix(1.023392,0.000000,0.000000,1.023322,-27.89221,-180.9533)"/><path style="opacity:1;color:#000;fill:none;fill-opacity:1;fill-rule:evenodd;stroke:#000;stroke-width:1;stroke-linecap:butt;stroke-linejoin:miter;marker:none;marker-start:none;marker-mid:none;marker-end:none;stroke-miterlimit:4;stroke-dasharray:none;stroke-dashoffset:0;stroke-opacity:1;visibility:visible;display:inline;overflow:visible" id="path2796" d="M 572.00000 582.36218 A 85.000000 85.000000 0 1 1 402.00000,582.36218 A 85.000000 85.000000 0 1 1 572.00000 582.36218 z" transform="matrix(1.169591,0.000000,0.000000,1.169034,-99.09113,-265.8105)"/><path style="opacity:1;color:#000;fill:none;fill-opacity:1;fill-rule:evenodd;stroke:#000;stroke-width:1;stroke-linecap:butt;stroke-linejoin:miter;marker:none;marker-start:none;marker-mid:none;marker-end:none;stroke-miterlimit:4;stroke-dasharray:none;stroke-dashoffset:0;stroke-opacity:1;visibility:visible;display:inline;overflow:visible" id="path2798" d="M 572.00000 582.36218 A 85.000000 85.000000 0 1 1 402.00000,582.36218 A 85.000000 85.000000 0 1 1 572.00000 582.36218 z" transform="matrix(1.315789,0.000000,0.000000,1.314659,-170.2896,-350.6170)"/><path style="opacity:1;color:#000;fill:none;fill-opacity:1;fill-rule:evenodd;stroke:#000;stroke-width:1;stroke-linecap:butt;stroke-linejoin:miter;marker:none;marker-start:none;marker-mid:none;marker-end:none;stroke-miterlimit:4;stroke-dasharray:none;stroke-dashoffset:0;stroke-opacity:1;visibility:visible;display:inline;overflow:visible" id="path2800" d="M 572.00000 582.36218 A 85.000000 85.000000 0 1 1 402.00000,582.36218 A 85.000000 85.000000 0 1 1 572.00000 582.36218 z" transform="matrix(1.461988,0.000000,0.000000,1.460203,-241.4885,-435.3763)"/><g id="g3552" transform="translate(359.0000,-247.0000)" style="stroke:#f5f5ff;stroke-width:2;stroke-miterlimit:4;stroke-dasharray:none;stroke-opacity:1"><path id="path3528" d="M 143.87002,537.68960 L 78.129981,783.03476" style="fill:none;fill-opacity:.75;fill-rule:evenodd;stroke:#f5f5ff;stroke-width:2;stroke-linecap:butt;stroke-linejoin:miter;stroke-miterlimit:4;stroke-dasharray:none;stroke-opacity:1"/><path id="path3530" d="M 174.50000,550.37695 L 47.500000,770.34741" style="fill:none;fill-opacity:.75;fill-rule:evenodd;stroke:#f5f5ff;stroke-width:2;stroke-linecap:butt;stroke-linejoin:miter;stroke-miterlimit:4;stroke-dasharray:none;stroke-opacity:1"/><path id="path3532" d="M 111.00000,533.36218 L 111.00000,787.36218" style="fill:none;fill-opacity:.75;fill-rule:evenodd;stroke:#f5f5ff;stroke-width:2;stroke-linecap:butt;stroke-linejoin:miter;stroke-miterlimit:4;stroke-dasharray:none;stroke-opacity:1"/><path id="path3534" d="M 200.80256,570.55962 L 21.197438,750.16474" style="fill:none;fill-opacity:.75;fill-rule:evenodd;stroke:#f5f5ff;stroke-width:2;stroke-linecap:butt;stroke-linejoin:miter;stroke-miterlimit:4;stroke-dasharray:none;stroke-opacity:1"/><path id="path3536" d="M 220.98522,596.86218 L 1.0147732,723.86218" style="fill:none;fill-opacity:.75;fill-rule:evenodd;stroke:#f5f5ff;stroke-width:2;stroke-linecap:butt;stroke-linejoin:miter;stroke-miterlimit:4;stroke-dasharray:none;stroke-opacity:1"/><path id="path3538" d="M 233.67257,627.49216 L -11.672581,693.23220" style="fill:none;fill-opacity:.75;fill-rule:evenodd;stroke:#f5f5ff;stroke-width:2;stroke-linecap:butt;stroke-linejoin:miter;stroke-miterlimit:4;stroke-dasharray:none;stroke-opacity:1"/><path id="path3540" d="M 237.99999,660.36218 L -16.000002,660.36218" style="fill:none;fill-opacity:.75;fill-rule:evenodd;stroke:#f5f5ff;stroke-width:2;stroke-linecap:butt;stroke-linejoin:miter;stroke-miterlimit:4;stroke-dasharray:none;stroke-opacity:1"/><path id="path3542" d="M 78.129981,537.68960 L 143.87002,783.03476" style="fill:none;fill-opacity:.75;fill-rule:evenodd;stroke:#f5f5ff;stroke-width:2;stroke-linecap:butt;stroke-linejoin:miter;stroke-miterlimit:4;stroke-dasharray:none;stroke-opacity:1"/><path id="path3544" d="M 47.500000,550.37695 L 174.50000,770.34741" style="fill:none;fill-opacity:.75;fill-rule:evenodd;stroke:#f5f5ff;stroke-width:2;stroke-linecap:butt;stroke-linejoin:miter;stroke-miterlimit:4;stroke-dasharray:none;stroke-opacity:1"/><path id="path3546" d="M 21.197438,570.55962 L 200.80256,750.16474" style="fill:none;fill-opacity:.75;fill-rule:evenodd;stroke:#f5f5ff;stroke-width:2;stroke-linecap:butt;stroke-linejoin:miter;stroke-miterlimit:4;stroke-dasharray:none;stroke-opacity:1"/><path id="path3548" d="M 1.0147732,596.86218 L 220.98522,723.86218" style="fill:none;fill-opacity:.75;fill-rule:evenodd;stroke:#f5f5ff;stroke-width:2;stroke-linecap:butt;stroke-linejoin:miter;stroke-miterlimit:4;stroke-dasharray:none;stroke-opacity:1"/><path id="path3550" d="M -11.672581,627.49216 L 233.67257,693.23220" style="fill:none;fill-opacity:.75;fill-rule:evenodd;stroke:#f5f5ff;stroke-width:2;stroke-linecap:butt;stroke-linejoin:miter;stroke-miterlimit:4;stroke-dasharray:none;stroke-opacity:1"/></g></g><path id="path4326" d="M 307.50888,456.50113 C 265.70317,456.50113 231.77390,490.43041 231.77390,532.23611 C 231.77390,574.04182 265.70317,607.97109 307.50888,607.97109 C 349.31458,607.97109 383.24385,574.04182 383.24385,532.23611 C 383.24385,490.43041 349.31458,456.50113 307.50888,456.50113 z M 307.50888,462.45781 C 346.02650,462.45781 377.28718,493.71849 377.28718,532.23611 C 377.28718,570.75373 346.02650,602.01441 307.50888,602.01441 C 268.99125,602.01441 237.73058,570.75373 237.73058,532.23611 C 237.73058,493.71849 268.99125,462.45781 307.50888,462.45781 z" style="opacity:1;color:#000;fill:#e5f867;fill-opacity:.57236844;fill-rule:evenodd;stroke:#000;stroke-width:.85095489;stroke-linecap:butt;stroke-linejoin:miter;marker:none;marker-start:none;marker-mid:none;marker-end:none;stroke-miterlimit:4;stroke-dasharray:none;stroke-dashoffset:0;stroke-opacity:1;visibility:visible;display:inline;overflow:visible"/><path id="path8011" d="M 450.87068,545.48472 A 154.00000,154.00000 0 0 1 425.72791,578.42291 L 317.00000,469.36218 z" transform="matrix(0.728806,0.000000,0.000000,0.728806,76.11320,188.9752)" style="opacity:1;color:#000;fill:#ff552a;fill-opacity:.4078947;fill-rule:evenodd;stroke:#f5f5ff;stroke-width:1;stroke-linecap:butt;stroke-linejoin:miter;marker:none;marker-start:none;marker-mid:none;marker-end:none;stroke-miterlimit:4;stroke-dasharray:none;stroke-dashoffset:0;stroke-opacity:1;visibility:visible;display:inline;overflow:visible"/><g id="g11692" transform="translate(221.3560,37.00000)"><path style="fill:#a09d9d;fill-opacity:1;fill-rule:evenodd;stroke:#000;stroke-width:1px;stroke-linecap:butt;stroke-linejoin:miter;stroke-opacity:1" id="path10203" d="M 9.0000000,690.36218 L 86.000000,709.36218 L 2.0000000,696.36218 L 0.00000000,689.36218 L 9.0000000,690.36218 z"/><path id="path10197" d="M 156.00000 559.36218 A 70.000000 73.000000 0 1 1 16.000000,559.36218 A 70.000000 73.000000 0 1 1 156.00000 559.36218 z" transform="matrix(-1.000000,-8.852539e-8,-1.246202e-7,-0.288592,171.9999,851.7896)" style="opacity:1;color:#000;fill:#f5f5ff;fill-opacity:1;fill-rule:evenodd;stroke:#000;stroke-width:3;stroke-linecap:butt;stroke-linejoin:miter;marker:none;marker-start:none;marker-mid:none;marker-end:none;stroke-miterlimit:4;stroke-dasharray:none;stroke-dashoffset:0;stroke-opacity:1;visibility:visible;display:inline;overflow:visible"/><path id="path10205" d="M 9.0000000,687.36218 L 86.000000,706.36218 L 2.0000000,693.36218 L 0.00000000,686.36218 L 9.0000000,687.36218 z" style="fill:#a09d9d;fill-opacity:1;fill-rule:evenodd;stroke:#000;stroke-width:1px;stroke-linecap:butt;stroke-linejoin:miter;stroke-opacity:1"/><path id="path10215" d="M 9.0000000,673.36218 L 86.000000,692.36218 L 2.0000000,679.36218 L 0.00000000,672.36218 L 9.0000000,673.36218 z" style="fill:#a09d9d;fill-opacity:1;fill-rule:evenodd;stroke:#000;stroke-width:1px;stroke-linecap:butt;stroke-linejoin:miter;stroke-opacity:1"/><path id="path10199" d="M 156.00000 559.36218 A 70.000000 73.000000 0 1 1 16.000000,559.36218 A 70.000000 73.000000 0 1 1 156.00000 559.36218 z" transform="matrix(-1.000000,-8.852539e-8,-1.246202e-7,-0.288592,172.0000,836.4563)" style="opacity:1;color:#000;fill:#f5f5ff;fill-opacity:1;fill-rule:evenodd;stroke:#000;stroke-width:3;stroke-linecap:butt;stroke-linejoin:miter;marker:none;marker-start:none;marker-mid:none;marker-end:none;stroke-miterlimit:4;stroke-dasharray:none;stroke-dashoffset:0;stroke-opacity:1;visibility:visible;display:inline;overflow:visible"/><path style="fill:#a09d9d;fill-opacity:1;fill-rule:evenodd;stroke:#000;stroke-width:1px;stroke-linecap:butt;stroke-linejoin:miter;stroke-opacity:1" id="path10217" d="M 9.0000000,670.36218 L 86.000000,689.36218 L 2.0000000,676.36218 L 0.00000000,669.36218 L 9.0000000,670.36218 z"/><path id="path10207" d="M 10.000000,643.36218 L 87.000000,662.36218 L 3.0000000,649.36218 L 1.0000000,642.36218 L 10.000000,643.36218 z" style="fill:#a09d9d;fill-opacity:1;fill-rule:evenodd;stroke:#000;stroke-width:1px;stroke-linecap:butt;stroke-linejoin:miter;stroke-opacity:1"/><path id="path10211" d="M 9.0000000,658.36218 L 86.000000,677.36218 L 2.0000000,664.36218 L 0.00000000,657.36218 L 9.0000000,658.36218 z" style="fill:#a09d9d;fill-opacity:1;fill-rule:evenodd;stroke:#000;stroke-width:1px;stroke-linecap:butt;stroke-linejoin:miter;stroke-opacity:1"/><path id="path10201" d="M 156.00000 559.36218 A 70.000000 73.000000 0 1 1 16.000000,559.36218 A 70.000000 73.000000 0 1 1 156.00000 559.36218 z" transform="matrix(-1.000000,-8.852539e-8,-1.246202e-7,-0.288592,171.9998,821.1232)" style="opacity:1;color:#000;fill:#f5f5ff;fill-opacity:1;fill-rule:evenodd;stroke:#000;stroke-width:3;stroke-linecap:butt;stroke-linejoin:miter;marker:none;marker-start:none;marker-mid:none;marker-end:none;stroke-miterlimit:4;stroke-dasharray:none;stroke-dashoffset:0;stroke-opacity:1;visibility:visible;display:inline;overflow:visible"/><path style="opacity:1;color:#000;fill:#f5f5ff;fill-opacity:1;fill-rule:evenodd;stroke:#000;stroke-width:3;stroke-linecap:butt;stroke-linejoin:miter;marker:none;marker-start:none;marker-mid:none;marker-end:none;stroke-miterlimit:4;stroke-dasharray:none;stroke-dashoffset:0;stroke-opacity:1;visibility:visible;display:inline;overflow:visible" id="path9467" d="M 156.00000 559.36218 A 70.000000 73.000000 0 1 1 16.000000,559.36218 A 70.000000 73.000000 0 1 1 156.00000 559.36218 z" transform="matrix(-1.000000,-8.852539e-8,-1.246202e-7,-0.288592,172.0000,805.7901)"/><path style="fill:#a09d9d;fill-opacity:1;fill-rule:evenodd;stroke:#000;stroke-width:1px;stroke-linecap:butt;stroke-linejoin:miter;stroke-opacity:1" id="path10209" d="M 10.000000,640.36218 L 87.000000,659.36218 L 3.0000000,646.36218 L 1.0000000,639.36218 L 10.000000,640.36218 z"/><path style="fill:#a09d9d;fill-opacity:1;fill-rule:evenodd;stroke:#000;stroke-width:1px;stroke-linecap:butt;stroke-linejoin:miter;stroke-opacity:1" id="path10213" d="M 9.0000000,655.36218 L 86.000000,674.36218 L 2.0000000,661.36218 L 0.00000000,654.36218 L 9.0000000,655.36218 z"/><g id="g11687" style="fill:#000;fill-opacity:1"><path id="path10955" d="M 156.00000 559.36218 A 70.000000 73.000000 0 1 1 16.000000,559.36218 A 70.000000 73.000000 0 1 1 156.00000 559.36218 z" transform="matrix(-0.177069,-1.567507e-8,-2.206633e-8,-5.110060e-2,101.2278,672.9464)" style="opacity:1;color:#000;fill:#000;fill-opacity:1;fill-rule:evenodd;stroke:#000;stroke-width:3;stroke-linecap:butt;stroke-linejoin:miter;marker:none;marker-start:none;marker-mid:none;marker-end:none;stroke-miterlimit:4;stroke-dasharray:none;stroke-dashoffset:0;stroke-opacity:1;visibility:visible;display:inline;overflow:visible"/><path id="path11683" d="M 156.00000 559.36218 A 70.000000 73.000000 0 1 1 16.000000,559.36218 A 70.000000 73.000000 0 1 1 156.00000 559.36218 z" transform="matrix(-0.177069,-1.567507e-8,-2.206633e-8,-5.110060e-2,101.2278,666.9464)" style="opacity:1;color:#000;fill:#000;fill-opacity:1;fill-rule:evenodd;stroke:#000;stroke-width:3;stroke-linecap:butt;stroke-linejoin:miter;marker:none;marker-start:none;marker-mid:none;marker-end:none;stroke-miterlimit:4;stroke-dasharray:none;stroke-dashoffset:0;stroke-opacity:1;visibility:visible;display:inline;overflow:visible"/><rect id="rect11685" width="22" height="6" x="75" y="638.362" style="opacity:1;color:#000;fill:#000;fill-opacity:1;fill-rule:evenodd;stroke:#000;stroke-width:3;stroke-linecap:butt;stroke-linejoin:miter;marker:none;marker-start:none;marker-mid:none;marker-end:none;stroke-miterlimit:4;stroke-dasharray:none;stroke-dashoffset:0;stroke-opacity:1;visibility:visible;display:inline;overflow:visible"/></g></g><text id="text11710" x="399.285" y="715.538" xml:space="preserve" style="font-size:12px;font-style:normal;font-weight:400;fill:#000;fill-opacity:1;stroke:none;stroke-width:1px;stroke-linecap:butt;stroke-linejoin:miter;stroke-opacity:1;font-family:Bitstream Vera Sans"><tspan id="tspan11712" x="399.285" y="715.538" style="font-family:Gill Sans MT">8 Heads,</tspan><tspan id="tspan1556" x="399.285" y="730.538" style="font-family:Gill Sans MT">4 Platters</tspan></text><text style="font-size:21.066248px;font-style:normal;font-variant:normal;font-weight:400;font-stretch:normal;text-indent:0;text-align:start;text-decoration:none;line-height:125%;letter-spacing:normal;word-spacing:normal;text-transform:none;direction:ltr;block-progression:tb;writing-mode:lr-tb;text-anchor:start;opacity:1;color:#000;fill:#000;fill-opacity:1;fill-rule:nonzero;stroke:none;stroke-width:1px;stroke-linecap:butt;stroke-linejoin:miter;marker:none;marker-start:none;marker-mid:none;marker-end:none;stroke-miterlimit:4;stroke-dasharray:none;stroke-dashoffset:0;stroke-opacity:1;visibility:visible;display:inline;overflow:visible;font-family:Bitstream Vera Sans" id="text11732" x="421.567" y="446.092" xml:space="preserve"><tspan id="tspan11734" x="421.567" y="446.092" style="font-family:Gill Sans MT">Track/</tspan><tspan id="tspan11736" x="421.567" y="472.425" style="font-family:Gill Sans MT">Cylinder</tspan></text><text style="font-size:21.066248px;font-style:normal;font-weight:400;text-align:start;line-height:125%;writing-mode:lr-tb;text-anchor:start;fill:#000;fill-opacity:1;stroke:none;stroke-width:1px;stroke-linecap:butt;stroke-linejoin:miter;stroke-opacity:1;font-family:Bitstream Vera Sans" id="text11738" x="398.943" y="694.043" xml:space="preserve"><tspan id="tspan11742" x="398.943" y="694.043" style="font-family:Gill Sans MT">Heads</tspan></text><text id="text11724" x="403.071" y="613.108" xml:space="preserve" style="font-size:21.066248px;font-style:normal;font-variant:normal;font-weight:400;font-stretch:normal;text-indent:0;text-align:start;text-decoration:none;line-height:125%;letter-spacing:normal;word-spacing:normal;text-transform:none;direction:ltr;block-progression:tb;writing-mode:lr-tb;text-anchor:start;opacity:1;color:#000;fill:#000;fill-opacity:1;fill-rule:nonzero;stroke:none;stroke-width:1px;stroke-linecap:butt;stroke-linejoin:miter;marker:none;marker-start:none;marker-mid:none;marker-end:none;stroke-miterlimit:4;stroke-dasharray:none;stroke-dashoffset:0;stroke-opacity:1;visibility:visible;display:inline;overflow:visible;font-family:Bitstream Vera Sans"><tspan id="tspan11730" x="403.071" y="613.108" style="font-family:Gill Sans MT">Sector</tspan></text><path id="path11744" d="M 368.36440,487.32089 L 414.27918,449.42298" style="fill:none;fill-opacity:.75;fill-rule:evenodd;stroke:#000;stroke-width:.72880602px;stroke-linecap:butt;stroke-linejoin:miter;stroke-opacity:1"/></g></g></svg>