<svg xmlns="http://www.w3.org/2000/svg" xmlns:svg="http://www.w3.org/2000/svg" id="svg1304" width="287.686" height="189.719" version="1.1" viewBox="0 0 287.686 189.719" xml:space="preserve"><metadata id="metadata1310"/><g id="g1312" transform="matrix(1.3333333,0,0,-1.3333333,-6.1589935e-6,189.71977)"><g id="g1314"><g id="g1320" transform="matrix(1,0,0,-1,0,176.69437)"><path style="fill:#eef4d7;fill-opacity:1;fill-rule:nonzero;stroke:#000;stroke-width:.105844;stroke-linecap:butt;stroke-linejoin:miter;stroke-miterlimit:4;stroke-dasharray:none;stroke-opacity:1" id="path1322" d="m 23.984,53.305 v -6 h 14.25 v 12 h -14.25 z"/></g><g id="g1324" transform="matrix(1,0,0,-1,0,176.69437)"><path style="fill:#eef4d7;fill-opacity:1;fill-rule:nonzero;stroke:#000;stroke-width:.111414;stroke-linecap:butt;stroke-linejoin:miter;stroke-miterlimit:4;stroke-dasharray:none;stroke-opacity:1" id="path1326" d="m 23.984,70.121 v -6.316 h 15 v 12.633 h -15 z"/></g><g id="g1328" transform="matrix(1,0,0,-1,0,176.69437)"><path style="fill:#eef4d7;fill-opacity:1;fill-rule:nonzero;stroke:#000;stroke-width:.111414;stroke-linecap:butt;stroke-linejoin:miter;stroke-miterlimit:4;stroke-dasharray:none;stroke-opacity:1" id="path1330" d="m 23.234,104.305 v -6.317 h 15 v 12.633 h -15 z"/></g><g id="g1332" transform="matrix(1,0,0,-1,0,176.69437)"><path style="fill:#eef4d7;fill-opacity:1;fill-rule:nonzero;stroke:#000;stroke-width:.111414;stroke-linecap:butt;stroke-linejoin:miter;stroke-miterlimit:4;stroke-dasharray:none;stroke-opacity:1" id="path1334" d="m 23.234,120.371 v -6.316 h 15 v 12.633 h -15 z"/></g><g id="g1336" transform="matrix(1,0,0,-1,0,176.69437)"><path style="fill:#eef4d7;fill-opacity:1;fill-rule:nonzero;stroke:#000;stroke-width:.111414;stroke-linecap:butt;stroke-linejoin:miter;stroke-miterlimit:4;stroke-dasharray:none;stroke-opacity:1" id="path1338" d="m 181.484,70.555 v -6.317 h 15 v 12.633 h -15 z"/></g><g id="g1340" transform="matrix(1,0,0,-1,0,176.69437)"><path style="fill:#eef4d7;fill-opacity:1;fill-rule:nonzero;stroke:#000;stroke-width:.111414;stroke-linecap:butt;stroke-linejoin:miter;stroke-miterlimit:4;stroke-dasharray:none;stroke-opacity:1" id="path1342" d="m 181.484,87.055 v -6.317 h 15 v 12.633 h -15 z"/></g><g id="g1344" transform="matrix(1,0,0,-1,0,176.69437)"><path style="fill:#eef4d7;fill-opacity:1;fill-rule:nonzero;stroke:#000;stroke-width:.111414;stroke-linecap:butt;stroke-linejoin:miter;stroke-miterlimit:4;stroke-dasharray:none;stroke-opacity:1" id="path1346" d="m 181.484,120.488 v -6.312 h 15 v 12.629 h -15 z"/></g><g id="g1348" transform="matrix(1,0,0,-1,0,176.69437)"><path style="fill:#eef4d7;fill-opacity:1;fill-rule:nonzero;stroke:#000;stroke-width:.111414;stroke-linecap:butt;stroke-linejoin:miter;stroke-miterlimit:4;stroke-dasharray:none;stroke-opacity:1" id="path1350" d="m 181.484,137.305 v -6.317 h 15 v 12.633 h -15 z"/></g><g id="g1356" transform="matrix(1,0,0,-1,0,176.69437)"><path style="fill:#d7e3f4;fill-opacity:1;fill-rule:nonzero;stroke:#000;stroke-width:.111414;stroke-linecap:butt;stroke-linejoin:miter;stroke-miterlimit:4;stroke-dasharray:none;stroke-opacity:1" id="path1358" d="m 23.984,87.055 v -6.317 h 15 v 12.633 h -15 z"/></g><g id="g1360" transform="matrix(1,0,0,-1,0,176.69437)"><path style="fill:#d7e3f4;fill-opacity:1;fill-rule:nonzero;stroke:#000;stroke-width:.111414;stroke-linecap:butt;stroke-linejoin:miter;stroke-miterlimit:4;stroke-dasharray:none;stroke-opacity:1" id="path1362" d="m 23.984,137.738 v -6.312 h 15 v 12.629 h -15 z"/></g><g id="g1364" transform="matrix(1,0,0,-1,0,176.69437)"><path style="fill:#d7e3f4;fill-opacity:1;fill-rule:nonzero;stroke:#000;stroke-width:.111414;stroke-linecap:butt;stroke-linejoin:miter;stroke-miterlimit:4;stroke-dasharray:none;stroke-opacity:1" id="path1366" d="m 181.484,103.555 v -6.317 h 15 v 12.633 h -15 z"/></g><g id="g1368" transform="matrix(1,0,0,-1,0,176.69437)"><path style="fill:#d7e3f4;fill-opacity:1;fill-rule:nonzero;stroke:#000;stroke-width:.111414;stroke-linecap:butt;stroke-linejoin:miter;stroke-miterlimit:4;stroke-dasharray:none;stroke-opacity:1" id="path1370" d="m 181.484,153.805 v -6.317 h 15 v 12.633 h -15 z"/></g><g id="g1372" transform="matrix(1,0,0,-1,0,176.69437)"><path style="fill:none;stroke:#000;stroke-width:1.59593105;stroke-linecap:butt;stroke-linejoin:miter;stroke-miterlimit:4;stroke-dasharray:none;stroke-opacity:1" id="path1374" d="M 23.496,46.742 H 39.18 V 60.015 H 23.496 Z"/></g><g id="g1376" transform="matrix(1,0,0,-1,0,176.69437)"><path style="fill:none;stroke:#000;stroke-width:1.59593105;stroke-linecap:butt;stroke-linejoin:miter;stroke-miterlimit:4;stroke-dasharray:none;stroke-opacity:1" id="path1378" d="M 23.496,63.543 H 39.18 V 76.816 H 23.496 Z"/></g><g id="g1380" transform="matrix(1,0,0,-1,0,176.69437)"><path style="fill:none;stroke:#000;stroke-width:1.59593105;stroke-linecap:butt;stroke-linejoin:miter;stroke-miterlimit:4;stroke-dasharray:none;stroke-opacity:1" id="path1382" d="M 23.496,80.348 H 39.18 v 13.27 H 23.496 Z"/></g><g id="g1384" transform="matrix(1,0,0,-1,0,176.69437)"><path style="fill:none;stroke:#000;stroke-width:1.59593105;stroke-linecap:butt;stroke-linejoin:miter;stroke-miterlimit:4;stroke-dasharray:none;stroke-opacity:1" id="path1386" d="M 23.496,97.148 H 39.18 v 13.27 H 23.496 Z"/></g><g id="g1388" transform="matrix(1,0,0,-1,0,176.69437)"><path style="fill:none;stroke:#000;stroke-width:1.59593105;stroke-linecap:butt;stroke-linejoin:miter;stroke-miterlimit:4;stroke-dasharray:none;stroke-opacity:1" id="path1390" d="M 23.496,113.949 H 39.18 v 13.27 H 23.496 Z"/></g><g id="g1392" transform="matrix(1,0,0,-1,0,176.69437)"><path style="fill:none;stroke:#000;stroke-width:1.59593105;stroke-linecap:butt;stroke-linejoin:miter;stroke-miterlimit:4;stroke-dasharray:none;stroke-opacity:1" id="path1394" d="M 23.496,130.75 H 39.18 v 13.273 H 23.496 Z"/></g><g id="g1396" transform="matrix(1,0,0,-1,0,176.69437)"><path style="fill:none;stroke:#000;stroke-width:1.59593105;stroke-linecap:butt;stroke-linejoin:miter;stroke-miterlimit:4;stroke-dasharray:none;stroke-opacity:1" id="path1398" d="M 23.496,147.555 H 39.18 v 13.27 H 23.496 Z"/></g><g id="g1400" transform="matrix(1,0,0,-1,0,176.69437)"><path style="fill:none;stroke:#000;stroke-width:1.59593105;stroke-linecap:butt;stroke-linejoin:miter;stroke-miterlimit:4;stroke-dasharray:none;stroke-opacity:1" id="path1402" d="m 181.43,46.742 h 15.684 V 60.015 H 181.43 Z"/></g><g id="g1404" transform="matrix(1,0,0,-1,0,176.69437)"><path style="fill:none;stroke:#000;stroke-width:1.59593105;stroke-linecap:butt;stroke-linejoin:miter;stroke-miterlimit:4;stroke-dasharray:none;stroke-opacity:1" id="path1406" d="m 181.43,63.543 h 15.684 V 76.816 H 181.43 Z"/></g><g id="g1408" transform="matrix(1,0,0,-1,0,176.69437)"><path style="fill:none;stroke:#000;stroke-width:1.59593105;stroke-linecap:butt;stroke-linejoin:miter;stroke-miterlimit:4;stroke-dasharray:none;stroke-opacity:1" id="path1410" d="m 181.43,80.348 h 15.684 v 13.27 H 181.43 Z"/></g><g id="g1412" transform="matrix(1,0,0,-1,0,176.69437)"><path style="fill:none;stroke:#000;stroke-width:1.59593105;stroke-linecap:butt;stroke-linejoin:miter;stroke-miterlimit:4;stroke-dasharray:none;stroke-opacity:1" id="path1414" d="m 181.43,97.148 h 15.684 v 13.27 H 181.43 Z"/></g><g id="g1416" transform="matrix(1,0,0,-1,0,176.69437)"><path style="fill:none;stroke:#000;stroke-width:1.59593105;stroke-linecap:butt;stroke-linejoin:miter;stroke-miterlimit:4;stroke-dasharray:none;stroke-opacity:1" id="path1418" d="m 181.43,113.949 h 15.684 v 13.27 H 181.43 Z"/></g><g id="g1420" transform="matrix(1,0,0,-1,0,176.69437)"><path style="fill:none;stroke:#000;stroke-width:1.59593105;stroke-linecap:butt;stroke-linejoin:miter;stroke-miterlimit:4;stroke-dasharray:none;stroke-opacity:1" id="path1422" d="m 181.43,130.75 h 15.684 v 13.273 H 181.43 Z"/></g><g id="g1424" transform="matrix(1,0,0,-1,0,176.69437)"><path style="fill:none;stroke:#000;stroke-width:1.59593105;stroke-linecap:butt;stroke-linejoin:miter;stroke-miterlimit:4;stroke-dasharray:none;stroke-opacity:1" id="path1426" d="m 181.43,147.555 h 15.684 v 13.27 H 181.43 Z"/></g><g id="g1428" transform="matrix(1,0,0,-1,0,176.69437)"><path style="fill:none;stroke:#000;stroke-width:2.11674309;stroke-linecap:butt;stroke-linejoin:miter;stroke-miterlimit:4;stroke-dasharray:none;stroke-opacity:1" id="path1430" d="m 68.301,55.145 c 0,2.226 -0.887,4.363 -2.461,5.941 -1.574,1.574 -3.711,2.457 -5.942,2.457 -4.636,0 -8.398,-3.758 -8.398,-8.398 0,-4.641 3.762,-8.403 8.398,-8.403 2.231,0 4.368,0.887 5.942,2.461 1.574,1.574 2.461,3.711 2.461,5.942 z"/></g><text style="font-variant:normal;font-weight:400;font-size:11.93286514px;font-family:'CMU Typewriter Text';-inkscape-font-specification:CMUTypewriter-Regular;writing-mode:lr-tb;fill:#000;fill-opacity:1;fill-rule:nonzero;stroke:none" id="text1434" transform="matrix(1,0,0,-1,5.55695,119.51326)"><tspan id="tspan1432" x="0 6.253" y="0">1A</tspan></text><text style="font-variant:normal;font-weight:400;font-size:11.9328661px;font-family:'CMU Typewriter Text';-inkscape-font-specification:CMUTypewriter-Regular;writing-mode:lr-tb;fill:#000;fill-opacity:1;fill-rule:nonzero;stroke:none" id="text1450" transform="matrix(1,0,0,-1,5.55695,102.7116)"><tspan id="tspan1436" x="0 6.253" y="0">1B</tspan><tspan id="tspan1438" x="0 6.253" y="16.802">1Y</tspan><tspan id="tspan1440" x="0 6.253" y="33.603">2A</tspan><tspan id="tspan1442" x="0 6.253" y="50.405">2B</tspan><tspan id="tspan1444" x="0 6.253" y="67.207">2Y</tspan><tspan id="tspan1446" x="-6.011 .241 6.494" y="83.935">GND</tspan><tspan id="tspan1448" x="196.019" y="-16.802">V</tspan></text><text style="font-variant:normal;font-weight:400;font-size:8px;font-family:'CMU Typewriter Text';-inkscape-font-specification:CMUTypewriter-Regular;writing-mode:lr-tb;fill:#000;fill-opacity:1;fill-rule:nonzero;stroke:none" id="text1454" transform="matrix(1,0,0,-1,207.84564,117.12669)"><tspan id="tspan1452" x="0 4.192" y="0">cc</tspan></text><text style="font-variant:normal;font-weight:400;font-size:11.932868px;font-family:'CMU Typewriter Text';-inkscape-font-specification:CMUTypewriter-Regular;writing-mode:lr-tb;fill:#000;fill-opacity:1;fill-rule:nonzero;stroke:none" id="text1468" transform="matrix(1,0,0,-1,201.57623,102.7116)"><tspan id="tspan1456" x="0 6.253" y="0">4B</tspan><tspan id="tspan1458" x="0 6.253" y="16.802">4A</tspan><tspan id="tspan1460" x="0 6.253" y="33.603">4Y</tspan><tspan id="tspan1462" x="0 6.253" y="50.405">3B</tspan><tspan id="tspan1464" x="0 6.253" y="67.207">3A</tspan><tspan id="tspan1466" x="0 6.253" y="84.008">3Y</tspan></text><text style="font-variant:normal;font-weight:400;font-size:11.9328661px;font-family:'CMU Typewriter Text';-inkscape-font-specification:CMUTypewriter-Regular;writing-mode:lr-tb;fill:#000;fill-opacity:1;fill-rule:nonzero;stroke:none" id="text1472" transform="matrix(1,0,0,-1,28.074403,119.51917)"><tspan id="tspan1470" x="0" y="0">1</tspan></text><text style="font-variant:normal;font-weight:400;font-size:11.932868px;font-family:'CMU Typewriter Text';-inkscape-font-specification:CMUTypewriter-Regular;writing-mode:lr-tb;fill:#000;fill-opacity:1;fill-rule:nonzero;stroke:none" id="text1484" transform="matrix(1,0,0,-1,28.074403,102.71752)"><tspan id="tspan1474" x="0" y="0">1</tspan><tspan id="tspan1476" x="0" y="16.802">0</tspan><tspan id="tspan1478" x="0" y="33.603">0</tspan><tspan id="tspan1480" x="0" y="50.405">0</tspan><tspan id="tspan1482" x="0" y="67.207">1</tspan></text><text style="font-variant:normal;font-weight:400;font-size:11.93286896px;font-family:'CMU Typewriter Text';-inkscape-font-specification:CMUTypewriter-Regular;writing-mode:lr-tb;fill:#000;fill-opacity:1;fill-rule:nonzero;stroke:none" id="text1498" transform="matrix(1,0,0,-1,185.85676,102.79579)"><tspan id="tspan1486" x="0" y="0">0</tspan><tspan id="tspan1488" x="0" y="16.802">0</tspan><tspan id="tspan1490" x="0" y="33.603">1</tspan><tspan id="tspan1492" x="0" y="50.405">1</tspan><tspan id="tspan1494" x=".287" y="67.218">1</tspan><tspan id="tspan1496" x=".29" y="84.02">0</tspan></text><g id="g1316" transform="matrix(1,0,0,-1,0,176.69437)"><path style="fill:none;stroke:#000;stroke-width:2.28491902;stroke-linecap:butt;stroke-linejoin:miter;stroke-miterlimit:4;stroke-dasharray:none;stroke-opacity:1" id="path1318" d="M 38.891,35.547 H 181.047 V 175.551 H 38.891 Z"/></g></g></g></svg>