<svg xmlns="http://www.w3.org/2000/svg" xmlns:svg="http://www.w3.org/2000/svg" id="svg22" width="389.971" height="96.638" version="1.1" viewBox="0 0 103.18 25.569"><metadata id="metadata19"/><g id="layer1" transform="translate(-85.221065,-89.279943)"><path id="path10208" d="m 112.19938,114.36502 c -6.79284,0 -17.985543,0 -17.985543,0 V 89.754547 l 17.985543,-0.0013 c 6.79287,0 12.30592,5.513034 12.30592,12.305913 0,6.79284 -5.51305,12.30592 -12.30592,12.30592 z m 16.09235,-12.30592 c 0,1.04506 -0.84817,1.89323 -1.89321,1.89323 -1.04506,0 -1.89322,-0.84817 -1.89322,-1.89323 0,-1.04503 0.84816,-1.8932 1.89322,-1.8932 1.04504,0 1.89321,0.84817 1.89321,1.8932 z m -2.9e-4,0 h 8.51955 M 85.694369,95.906154 h 8.519532 m -8.519532,12.305886 h 8.519532" style="display:inline;fill:none;fill-opacity:1;stroke:#000;stroke-width:.94660825;stroke-linecap:square;stroke-miterlimit:4;stroke-dashoffset:0;stroke-opacity:1"/><path id="path10208-6" d="m 163.31602,114.37552 c -6.7929,0 -17.98557,0 -17.98557,0 V 89.765029 l 17.98557,-0.0013 c 6.79285,0 12.3059,5.513044 12.3059,12.305911 0,6.79284 -5.51305,12.30592 -12.3059,12.30592 z m 16.09234,-12.30592 c 0,1.04505 -0.84815,1.89319 -1.89327,1.89319 -1.04503,0 -1.89317,-0.84814 -1.89317,-1.89319 0,-1.04504 0.84814,-1.89321 1.89317,-1.89321 1.04512,0 1.89327,0.84817 1.89327,1.89321 z m -3e-4,0 h 8.51952 m -51.11659,-6.152935 h 8.51954 m -8.51954,12.305875 h 8.51954" style="display:inline;fill:none;fill-opacity:1;stroke:#000;stroke-width:.94660825;stroke-linecap:square;stroke-miterlimit:4;stroke-dashoffset:0;stroke-opacity:1"/><path style="display:inline;fill:none;fill-rule:evenodd;stroke:#000;stroke-width:.80377251px;stroke-linecap:butt;stroke-linejoin:miter;stroke-opacity:1" id="path2183" d="M 136.81099,95.916665 V 102.0591"/><path style="display:inline;fill:none;fill-rule:evenodd;stroke:#000;stroke-width:.79333621px;stroke-linecap:butt;stroke-linejoin:miter;stroke-opacity:1" id="path2183-7" d="m 136.81099,102.0591 v 5.98395"/><text style="font-style:normal;font-weight:400;font-size:2.28735495px;line-height:1.42959714px;font-family:sans-serif;letter-spacing:0;word-spacing:0;fill:#000;fill-opacity:1;stroke:none;stroke-width:.05718389" id="text92" x="87.982" y="94.111" xml:space="preserve"><tspan id="tspan90" x="87.982" y="94.111" style="font-size:5.04229259px;stroke-width:.05718389">A</tspan></text><text id="text96" x="87.736" y="106.972" xml:space="preserve" style="font-style:normal;font-weight:400;font-size:5.37169504px;line-height:1.52298975px;font-family:sans-serif;letter-spacing:0;word-spacing:0;fill:#000;fill-opacity:1;stroke:none;stroke-width:.0609196"><tspan style="font-size:5.37169504px;stroke-width:.0609196" id="tspan94" x="87.736" y="106.972">B</tspan></text><text style="font-style:normal;font-weight:400;font-size:2.70666838px;line-height:1.69166791px;font-family:sans-serif;letter-spacing:0;word-spacing:0;fill:#000;fill-opacity:1;stroke:none;stroke-width:.06766672" id="text92-4" x="182.517" y="100.453" xml:space="preserve"><tspan id="tspan90-0" x="182.517" y="100.453" style="font-size:5.96663523px;stroke-width:.06766672">Y</tspan></text></g></svg>