<svg xmlns="http://www.w3.org/2000/svg" xmlns:svg="http://www.w3.org/2000/svg" id="svg18" width="605.326" height="250.667" version="1.1" viewBox="0 0 160.159 66.322"><defs id="defs12"><marker id="marker12458" orient="auto" refX="0" refY="0" style="overflow:visible"><path id="path12456" d="M 8.7185878,4.0337352 -2.2072895,0.01601326 8.7185884,-4.0017078 c -1.7454984,2.3720609 -1.7354408,5.6174519 -6e-7,8.035443 z" transform="matrix(-1.1,0,0,-1.1,-1.1,0)" style="fill:#000;fill-opacity:1;fill-rule:evenodd;stroke:#000;stroke-width:.625;stroke-linejoin:round;stroke-opacity:1"/></marker><marker id="marker12400" orient="auto" refX="0" refY="0" style="overflow:visible"><path id="path12398" d="M 8.7185878,4.0337352 -2.2072895,0.01601326 8.7185884,-4.0017078 c -1.7454984,2.3720609 -1.7354408,5.6174519 -6e-7,8.035443 z" transform="matrix(-1.1,0,0,-1.1,-1.1,0)" style="fill:#000;fill-opacity:1;fill-rule:evenodd;stroke:#000;stroke-width:.625;stroke-linejoin:round;stroke-opacity:1"/></marker><marker id="Arrow2Lend" orient="auto" refX="0" refY="0" style="overflow:visible"><path id="path8919" d="M 8.7185878,4.0337352 -2.2072895,0.01601326 8.7185884,-4.0017078 c -1.7454984,2.3720609 -1.7354408,5.6174519 -6e-7,8.035443 z" transform="matrix(-1.1,0,0,-1.1,-1.1,0)" style="fill:#000;fill-opacity:1;fill-rule:evenodd;stroke:#000;stroke-width:.625;stroke-linejoin:round;stroke-opacity:1"/></marker><marker style="overflow:visible" id="marker12067" orient="auto" refX="0" refY="0"><path style="fill:#000;fill-opacity:1;fill-rule:evenodd;stroke:#000;stroke-width:.625;stroke-linejoin:round;stroke-opacity:1" id="path12065" d="M 8.7185878,4.0337352 -2.2072895,0.01601326 8.7185884,-4.0017078 c -1.7454984,2.3720609 -1.7354408,5.6174519 -6e-7,8.035443 z" transform="matrix(-1.1,0,0,-1.1,-1.1,0)"/></marker><marker style="overflow:visible" id="marker12027" orient="auto" refX="0" refY="0"><path style="fill:#000;fill-opacity:1;fill-rule:evenodd;stroke:#000;stroke-width:.625;stroke-linejoin:round;stroke-opacity:1" id="path12025" d="M 8.7185878,4.0337352 -2.2072895,0.01601326 8.7185884,-4.0017078 c -1.7454984,2.3720609 -1.7354408,5.6174519 -6e-7,8.035443 z" transform="matrix(-1.1,0,0,-1.1,-1.1,0)"/></marker><marker style="overflow:visible" id="marker11993" orient="auto" refX="0" refY="0"><path style="fill:#000;fill-opacity:1;fill-rule:evenodd;stroke:#000;stroke-width:.625;stroke-linejoin:round;stroke-opacity:1" id="path11991" d="M 8.7185878,4.0337352 -2.2072895,0.01601326 8.7185884,-4.0017078 c -1.7454984,2.3720609 -1.7354408,5.6174519 -6e-7,8.035443 z" transform="matrix(-1.1,0,0,-1.1,-1.1,0)"/></marker><marker style="overflow:visible" id="marker11965" orient="auto" refX="0" refY="0"><path style="fill:#000;fill-opacity:1;fill-rule:evenodd;stroke:#000;stroke-width:.625;stroke-linejoin:round;stroke-opacity:1" id="path11963" d="M 8.7185878,4.0337352 -2.2072895,0.01601326 8.7185884,-4.0017078 c -1.7454984,2.3720609 -1.7354408,5.6174519 -6e-7,8.035443 z" transform="matrix(-1.1,0,0,-1.1,-1.1,0)"/></marker><marker style="overflow:visible" id="marker11943" orient="auto" refX="0" refY="0"><path style="fill:#000;fill-opacity:1;fill-rule:evenodd;stroke:#000;stroke-width:.625;stroke-linejoin:round;stroke-opacity:1" id="path11941" d="M 8.7185878,4.0337352 -2.2072895,0.01601326 8.7185884,-4.0017078 c -1.7454984,2.3720609 -1.7354408,5.6174519 -6e-7,8.035443 z" transform="matrix(-1.1,0,0,-1.1,-1.1,0)"/></marker></defs><metadata id="metadata15"/><g id="layer1" transform="translate(-36.867271,-83.92222)"><rect style="fill:none;fill-opacity:1;stroke:#000;stroke-width:.59299517;stroke-miterlimit:4;stroke-dasharray:none;stroke-opacity:1" id="rect935-8-8-0" width="34.274" height="39.112" x="37.164" y="95.917" rx="4.301" ry="5.176"/><text style="font-style:normal;font-weight:400;font-size:4.20965004px;line-height:2.63103104px;font-family:sans-serif;letter-spacing:0;word-spacing:0;fill:#000;fill-opacity:1;stroke:none;stroke-width:.10524125" id="text1080-13-10-0-2-2-6-8-1-0" x="42.075" y="97.305" xml:space="preserve"><tspan style="font-style:normal;font-variant:normal;font-weight:400;font-stretch:normal;font-family:'CMU Typewriter Text';-inkscape-font-specification:'CMU Typewriter Text';stroke-width:.10524125" id="tspan11901" x="42.075" y="102.409">digraph { </tspan><tspan style="font-style:normal;font-variant:normal;font-weight:400;font-stretch:normal;font-family:'CMU Typewriter Text';-inkscape-font-specification:'CMU Typewriter Text';stroke-width:.10524125" id="tspan12804" x="42.075" y="107.735"> a -&gt; b; </tspan><tspan style="font-style:normal;font-variant:normal;font-weight:400;font-stretch:normal;font-family:'CMU Typewriter Text';-inkscape-font-specification:'CMU Typewriter Text';stroke-width:.10524125" id="tspan12808" x="42.075" y="113.06"> b -&gt; c; </tspan><tspan style="font-style:normal;font-variant:normal;font-weight:400;font-stretch:normal;font-family:'CMU Typewriter Text';-inkscape-font-specification:'CMU Typewriter Text';stroke-width:.10524125" id="tspan12812" x="42.075" y="118.386"> a -&gt; c; </tspan><tspan style="font-style:normal;font-variant:normal;font-weight:400;font-stretch:normal;font-family:'CMU Typewriter Text';-inkscape-font-specification:'CMU Typewriter Text';stroke-width:.10524125" id="tspan12816" x="42.075" y="123.712"> d -&gt; c; </tspan><tspan style="font-style:normal;font-variant:normal;font-weight:400;font-stretch:normal;font-family:'CMU Typewriter Text';-inkscape-font-specification:'CMU Typewriter Text';stroke-width:.10524125" id="tspan12820" x="42.075" y="129.038">}</tspan></text><path style="fill:none;stroke:#000;stroke-width:.48306084px;stroke-linecap:butt;stroke-linejoin:miter;stroke-opacity:1;marker-end:url(#marker12400)" id="path12394" d="M 76.729177,111.79166 H 129.64584"/><g id="graph0" class="graph" transform="matrix(0.35277777,0,0,0.35277777,137.75973,148.83333)"><title id="title2">%3</title><polygon style="fill:#fff;stroke:none" id="polygon4" points="-4 4 -4 -184 168 -184 168 4"/><g id="node1" class="node"><title id="title6">a</title><ellipse style="fill:none;stroke:#000" id="ellipse8" cx="54" cy="-162" rx="27" ry="18"/><text style="font-size:14px;font-family:Times,serif;text-anchor:middle" id="text10" x="54" y="-158.3" font-size="14">a</text></g><g id="node2" class="node"><title id="title13">b</title><ellipse style="fill:none;stroke:#000" id="ellipse15" cx="27" cy="-90" rx="27" ry="18"/><text style="font-size:14px;font-family:Times,serif;text-anchor:middle" id="text17" x="27" y="-86.3" font-size="14">b</text></g><g id="edge1" class="edge"><title id="title20">a-&gt;b</title><path style="fill:none;stroke:#000" id="path22" d="m 47.6014,-144.411 c -3.115,8.076 -6.9351,17.98 -10.436,27.056"/><polygon style="fill:#000;stroke:#000" id="polygon24" points="33.873 -118.546 40.404 -116.027 33.54 -107.956"/></g><g id="node3" class="node"><title id="title27">c</title><ellipse style="fill:none;stroke:#000" id="ellipse29" cx="82" cy="-18" rx="27" ry="18"/><text style="font-size:14px;font-family:Times,serif;text-anchor:middle" id="text31" x="82" y="-14.3" font-size="14">c</text></g><g id="edge3" class="edge"><title id="title34">a-&gt;c</title><path style="fill:none;stroke:#000" id="path36" d="m 57.3775,-143.871 c 4.7931,24.307 13.616,69.0523 19.2959,97.8578"/><polygon style="fill:#000;stroke:#000" id="polygon38" points="73.242 -45.323 80.11 -46.678 78.611 -36.189"/></g><g id="edge2" class="edge"><title id="title41">b-&gt;c</title><path style="fill:none;stroke:#000" id="path43" d="m 38.9342,-73.811 c 7.2794,9.2646 16.7284,21.2907 24.9202,31.7166"/><polygon style="fill:#000;stroke:#000" id="polygon45" points="61.159 -39.86 66.663 -44.185 70.089 -34.159"/></g><g id="node4" class="node"><title id="title48">d</title><ellipse style="fill:none;stroke:#000" id="ellipse50" cx="137" cy="-90" rx="27" ry="18"/><text style="font-size:14px;font-family:Times,serif;text-anchor:middle" id="text52" x="137" y="-86.3" font-size="14">d</text></g><g id="edge4" class="edge"><title id="title55">d-&gt;c</title><path style="fill:none;stroke:#000" id="path57" d="m 125.066,-73.811 c -7.28,9.2646 -16.729,21.2907 -24.92,31.7166"/><polygon style="fill:#000;stroke:#000" id="polygon59" points="97.337 -44.185 102.841 -39.86 93.911 -34.159"/></g></g></g></svg>