<svg xmlns="http://www.w3.org/2000/svg" xmlns:svg="http://www.w3.org/2000/svg" style="font-style:normal;font-weight:400;font-size:12px;font-family:Dialog;color-interpolation:auto;fill:#000;fill-opacity:1;stroke:#000;stroke-width:1;stroke-linecap:square;stroke-linejoin:miter;stroke-miterlimit:10;stroke-dasharray:none;stroke-dashoffset:0;stroke-opacity:1;color-rendering:auto;image-rendering:auto;shape-rendering:auto;text-rendering:auto" id="svg74" width="444.809" height="129.361" stroke-miterlimit="10" font-size="12" font-style="normal" font-weight="normal" version="1.1"><metadata id="metadata78"/><g id="g72" transform="matrix(1.721051,0,0,1.721051,0,-111.71068)"><defs id="defs1"><clipPath id="clipPath1" clipPathUnits="userSpaceOnUse"><path id="path3" d="M 0,0 H 643 V 187 H 0 Z"/></clipPath><clipPath id="clipPath2" clipPathUnits="userSpaceOnUse"><path id="path6" d="M 21,361 H 664 V 548 H 21 Z"/></clipPath></defs><g id="g12" transform="translate(-21,-361)" style="fill:#fff;stroke:#fff;shape-rendering:geometricPrecision;text-rendering:geometricPrecision"><rect id="rect10" width="643" height="187" x="21" y="361" clip-path="url(#clipPath2)" style="stroke:none"/></g><g id="g70" stroke-miterlimit="1.45" transform="translate(-21,-361)" style="stroke-linecap:butt;stroke-miterlimit:1.45000005;shape-rendering:geometricPrecision;text-rendering:geometricPrecision"><rect id="rect14" width="192.667" height="33.029" x="21.333" y="412.486" clip-path="url(#clipPath2)" style="fill:none"/><text id="text16" x="63.298" y="433.714" clip-path="url(#clipPath2)" xml:space="preserve" style="font-family:sans-serif;stroke:none">Assembly Language</text><rect id="rect18" width="192.667" height="33.029" x="21.333" y="463.486" clip-path="url(#clipPath2)" style="fill:none"/><text id="text20" x="85.648" y="484.714" clip-path="url(#clipPath2)" xml:space="preserve" style="font-family:sans-serif;stroke:none">Logic Gates</text><rect id="rect22" width="192.667" height="33.029" x="21.333" y="514.486" clip-path="url(#clipPath2)" style="fill:none"/><text id="text24" x="100.666" y="535.714" clip-path="url(#clipPath2)" xml:space="preserve" style="font-family:sans-serif;stroke:none">Circuit</text><rect id="rect26" width="175" height="30" x="260" y="439" clip-path="url(#clipPath2)" style="fill:none"/><text id="text28" x="313.489" y="458.714" clip-path="url(#clipPath2)" xml:space="preserve" style="font-family:sans-serif;stroke:none">Mathematics</text><rect id="rect30" width="175" height="30" x="489" y="439" clip-path="url(#clipPath2)" style="fill:none"/><text id="text32" x="531.816" y="458.714" clip-path="url(#clipPath2)" xml:space="preserve" style="font-family:sans-serif;stroke:none">Problem Domain</text><rect id="rect34" width="192.667" height="33.029" x="21.333" y="361.486" clip-path="url(#clipPath2)" style="fill:none"/><text id="text36" x="53.293" y="382.714" clip-path="url(#clipPath2)" xml:space="preserve" style="font-family:sans-serif;stroke:none">Programming Language</text><path id="path38" d="m 117.6667,445.5143 v 9.9714" clip-path="url(#clipPath2)" style="fill:none"/><path id="path40" d="m 117.6667,463.4857 5,-12 -5,3 -5,-3 z" clip-path="url(#clipPath2)" style="stroke:none"/><path id="path42" d="m 117.6667,496.5143 v 9.9714" clip-path="url(#clipPath2)" style="fill:none"/><path id="path44" d="m 117.6667,514.4857 5,-12 -5,3 -5,-3 z" clip-path="url(#clipPath2)" style="stroke:none"/><path id="path46" d="M 259.9824,453.9756 241.928,429 H 222" clip-path="url(#clipPath2)" style="fill:none"/><path id="path48" d="m 214,429 12,5 -3,-5 3,-5 z" clip-path="url(#clipPath2)" style="stroke:none"/><path id="path50" d="M 259.9863,454.0254 246,480 v 0 h -24" clip-path="url(#clipPath2)" style="fill:none"/><path id="path52" d="m 214,480 12,5 -3,-5 3,-5 z" clip-path="url(#clipPath2)" style="stroke:none"/><path id="path54" d="M 259.9984,454.4136 246.0653,531 H 222" clip-path="url(#clipPath2)" style="fill:none"/><path id="path56" d="m 214,531 12,5 -3,-5 3,-5 z" clip-path="url(#clipPath2)" style="stroke:none"/><path id="path58" d="M 489,454 H 443" clip-path="url(#clipPath2)" style="fill:none"/><path id="path60" d="m 435,454 12,5 -3,-5 3,-5 z" clip-path="url(#clipPath2)" style="stroke:none"/><path id="path62" d="M 259.9847,453.9629 228.7379,378 H 222" clip-path="url(#clipPath2)" style="fill:none"/><path id="path64" d="m 214,378 12,5 -3,-5 3,-5 z" clip-path="url(#clipPath2)" style="stroke:none"/><path id="path66" d="m 117.6667,394.5143 v 9.9714" clip-path="url(#clipPath2)" style="fill:none"/><path id="path68" d="m 117.6667,412.4857 5,-12 -5,3 -5,-3 z" clip-path="url(#clipPath2)" style="stroke:none"/></g></g></svg>