<svg xmlns="http://www.w3.org/2000/svg" xmlns:svg="http://www.w3.org/2000/svg" id="svg3788" width="588.607" height="268.33" version="1.1" viewBox="0 0 155.736 70.996"><metadata id="metadata3785"/><g id="layer1" transform="translate(-17.99003,-147.72163)"><path id="path10208-86" d="m 45.457441,176.73569 c -6.792841,0 -17.985544,0 -17.985544,0 v -24.61048 l 17.985544,-0.001 c 6.79287,0 12.30592,5.51303 12.30592,12.30591 0,6.79284 -5.51305,12.30592 -12.30592,12.30592 z m 16.09235,-12.30592 c 0,1.04506 -0.84817,1.89323 -1.89321,1.89323 -1.04506,0 -1.89322,-0.84817 -1.89322,-1.89323 0,-1.04503 0.84816,-1.8932 1.89322,-1.8932 1.04504,0 1.89321,0.84817 1.89321,1.8932 z m -2.6e-4,0 h 8.51955 m -51.116652,-6.15295 h 8.519532 m -8.519532,12.30589 h 8.519532" style="display:inline;fill:none;fill-opacity:1;stroke:#000;stroke-width:.9466083;stroke-linecap:square;stroke-miterlimit:4;stroke-dashoffset:0;stroke-opacity:1"/><path id="path10208-6" d="m 96.686916,197.83781 c -6.861345,0 -18.166793,0 -18.166793,0 v -24.60584 l 18.166793,-10e-4 c 6.861294,0 12.429894,5.512 12.429894,12.30358 0,6.79155 -5.5686,12.30359 -12.429894,12.30359 z M 112.9414,185.53422 c 0,1.04485 -0.85669,1.89283 -1.91234,1.89283 -1.05556,0 -1.91225,-0.84798 -1.91225,-1.89283 0,-1.04484 0.85669,-1.89285 1.91225,-1.89285 1.05565,0 1.91234,0.84801 1.91234,1.89285 z m -2.6e-4,0 h 8.60535 m -51.631669,-6.15177 h 8.605383 m -8.605383,12.30354 h 8.605383" style="display:inline;fill:none;fill-opacity:1;stroke:#000;stroke-width:.95127517;stroke-linecap:square;stroke-miterlimit:4;stroke-dashoffset:0;stroke-opacity:1"/><path id="path10208-86-7" d="m 44.968346,218.24355 c -6.792841,0 -17.985544,0 -17.985544,0 v -24.61048 l 17.985544,-0.001 c 6.79287,0 12.30592,5.51303 12.30592,12.30591 0,6.79284 -5.51305,12.30592 -12.30592,12.30592 z m 16.09235,-12.30592 c 0,1.04506 -0.84817,1.89323 -1.89321,1.89323 -1.04506,0 -1.89322,-0.84817 -1.89322,-1.89323 0,-1.04503 0.84816,-1.8932 1.89322,-1.8932 1.04504,0 1.89321,0.84817 1.89321,1.8932 z m -2.6e-4,0 h 8.51955 m -51.116652,-6.15295 h 8.519532 m -8.519532,12.30589 h 8.519532" style="display:inline;fill:none;fill-opacity:1;stroke:#000;stroke-width:.94660836;stroke-linecap:square;stroke-miterlimit:4;stroke-dashoffset:0;stroke-opacity:1"/><path style="fill:none;stroke:#000;stroke-width:1;stroke-linecap:butt;stroke-linejoin:miter;stroke-miterlimit:4;stroke-dasharray:none;stroke-opacity:1" id="path4047" d="m 70.069081,164.42977 c -0.156593,14.95151 -0.156593,14.95151 -0.156593,14.95151"/><path style="fill:none;stroke:#000;stroke-width:.9892205;stroke-linecap:butt;stroke-linejoin:miter;stroke-miterlimit:4;stroke-dasharray:none;stroke-opacity:1" id="path4047-1" d="m 69.912272,191.68589 c -0.156725,14.61873 -0.156725,14.61873 -0.156725,14.61873"/><path id="path10208-6-7" d="m 148.64081,197.61158 c -6.7929,0 -17.98557,0 -17.98557,0 v -24.6105 l 17.98557,-0.001 c 6.79285,0 12.3059,5.51304 12.3059,12.30591 0,6.79284 -5.51305,12.30592 -12.3059,12.30592 z m 16.09234,-12.30592 c 0,1.04505 -0.84815,1.89319 -1.89327,1.89319 -1.04503,0 -1.89317,-0.84814 -1.89317,-1.89319 0,-1.04504 0.84814,-1.89321 1.89317,-1.89321 1.04512,0 1.89327,0.84817 1.89327,1.89321 z m -2.6e-4,0 h 8.51951 m -51.11662,-6.15294 h 8.51954 m -8.51954,12.30588 h 8.51954" style="display:inline;fill:none;fill-opacity:1;stroke:#000;stroke-width:.94660836;stroke-linecap:square;stroke-miterlimit:4;stroke-dashoffset:0;stroke-opacity:1"/><path style="fill:none;stroke:#000;stroke-width:.54521149px;stroke-linecap:butt;stroke-linejoin:miter;stroke-opacity:1" id="path69" d="m 121.80748,178.6571 5.9e-4,3.27705 7.7e-4,3.46178"/><path style="fill:none;stroke:#000;stroke-width:.55726719px;stroke-linecap:butt;stroke-linejoin:miter;stroke-opacity:1" id="path71" d="m 121.85835,191.95062 c -0.0565,-6.7522 -0.0565,-6.7522 -0.0565,-6.7522"/><text style="font-style:normal;font-weight:400;font-size:2.70666838px;line-height:1.69166791px;font-family:sans-serif;letter-spacing:0;word-spacing:0;fill:#000;fill-opacity:1;stroke:none;stroke-width:.06766672" id="text92-4" x="20.673" y="156.48" xml:space="preserve"><tspan id="tspan90-0" x="20.673" y="156.48" style="font-size:5.96663523px;stroke-width:.06766672">A</tspan></text><text style="font-style:normal;font-weight:400;font-size:2.70666838px;line-height:1.69166791px;font-family:sans-serif;letter-spacing:0;word-spacing:0;fill:#000;fill-opacity:1;stroke:none;stroke-width:.06766672" id="text92-4-9" x="20.673" y="168.908" xml:space="preserve"><tspan id="tspan90-0-1" x="20.673" y="168.908" style="font-size:5.96663523px;stroke-width:.06766672">A</tspan></text><text style="font-style:normal;font-weight:400;font-size:2.70666838px;line-height:1.69166791px;font-family:sans-serif;letter-spacing:0;word-spacing:0;fill:#000;fill-opacity:1;stroke:none;stroke-width:.06766672" id="text92-4-8" x="20.673" y="197.907" xml:space="preserve"><tspan id="tspan90-0-0" x="20.673" y="197.907" style="font-size:5.96663523px;stroke-width:.06766672">B</tspan></text><text style="font-style:normal;font-weight:400;font-size:2.70666838px;line-height:1.69166791px;font-family:sans-serif;letter-spacing:0;word-spacing:0;fill:#000;fill-opacity:1;stroke:none;stroke-width:.06766672" id="text92-4-97" x="20.673" y="210.335" xml:space="preserve"><tspan id="tspan90-0-8" x="20.673" y="210.335" style="font-size:5.96663523px;stroke-width:.06766672">B</tspan></text><text style="font-style:normal;font-weight:400;font-size:2.70666838px;line-height:1.69166791px;font-family:sans-serif;letter-spacing:0;word-spacing:0;fill:#000;fill-opacity:1;stroke:none;stroke-width:.06766672" id="text92-4-86" x="167.537" y="183.474" xml:space="preserve"><tspan id="tspan90-0-7" x="167.537" y="183.474" style="font-size:5.96663523px;stroke-width:.06766672">Y</tspan></text></g></svg>