<svg xmlns="http://www.w3.org/2000/svg" xmlns:svg="http://www.w3.org/2000/svg" id="svg22" width="203.342" height="111.449" version="1.1" viewBox="0 0 53.801 29.487"><metadata id="metadata19"/><g id="layer1" transform="translate(-85.221065,-85.350954)"><path id="path10208" d="m 112.19938,114.36502 c -6.79284,0 -17.985543,0 -17.985543,0 V 89.754547 l 17.985543,-0.0013 c 6.79287,0 12.30592,5.513034 12.30592,12.305913 0,6.79284 -5.51305,12.30592 -12.30592,12.30592 z m 16.09235,-12.30592 c 0,1.04506 -0.84817,1.89323 -1.89321,1.89323 -1.04506,0 -1.89322,-0.84817 -1.89322,-1.89323 0,-1.04503 0.84816,-1.8932 1.89322,-1.8932 1.04504,0 1.89321,0.84817 1.89321,1.8932 z m -2.9e-4,0 h 8.51955 M 85.694369,95.906154 h 8.519532 m -8.519532,12.305886 h 8.519532" style="display:inline;fill:none;fill-opacity:1;stroke:#000;stroke-width:.94660825;stroke-linecap:square;stroke-miterlimit:4;stroke-dashoffset:0;stroke-opacity:1"/><text style="font-style:normal;font-weight:400;font-size:2.70666838px;line-height:1.69166791px;font-family:sans-serif;letter-spacing:0;word-spacing:0;fill:#000;fill-opacity:1;stroke:none;stroke-width:.06766672" id="text92-4" x="87.383" y="94.964" xml:space="preserve"><tspan id="tspan90-0" x="87.383" y="94.964" style="font-size:5.96663523px;stroke-width:.06766672">A</tspan></text><text style="font-style:normal;font-weight:400;font-size:2.70666838px;line-height:1.69166791px;font-family:sans-serif;letter-spacing:0;word-spacing:0;fill:#000;fill-opacity:1;stroke:none;stroke-width:.06766672" id="text92-4-7" x="87.639" y="107.313" xml:space="preserve"><tspan id="tspan90-0-1" x="87.639" y="107.313" style="font-size:5.96663523px;stroke-width:.06766672">A</tspan></text><text style="font-style:normal;font-weight:400;font-size:2.70666838px;line-height:1.69166791px;font-family:sans-serif;letter-spacing:0;word-spacing:0;fill:#000;fill-opacity:1;stroke:none;stroke-width:.06766672" id="text92-4-1" x="130.734" y="100.443" xml:space="preserve"><tspan id="tspan90-0-5" x="130.734" y="100.443" style="font-size:5.96663523px;stroke-width:.06766672">Y</tspan></text></g></svg>