<svg xmlns="http://www.w3.org/2000/svg" xmlns:svg="http://www.w3.org/2000/svg" id="svg3788" width="387.49" height="253.479" version="1.1" viewBox="0 0 102.523 67.066"><metadata id="metadata3785"/><g id="layer1" transform="translate(-18.978904,-151.65091)"><path id="path10208-86" d="M 45.457441,176.73569 H 27.471897 v -24.61048 l 17.985544,-0.001 c 6.79287,0 12.30592,5.51303 12.30592,12.30591 0,6.79284 -5.51305,12.30592 -12.30592,12.30592 z m 16.09235,-12.30592 c 0,1.04506 -0.84817,1.89323 -1.89321,1.89323 -1.04506,0 -1.89322,-0.84817 -1.89322,-1.89323 0,-1.04503 0.84816,-1.8932 1.89322,-1.8932 1.04504,0 1.89321,0.84817 1.89321,1.8932 z m -2.6e-4,0 h 8.51955 m -49.878057,-6.14484 7.280937,-0.008 m -7.450355,12.30589 h 7.450355" style="display:inline;fill:none;fill-opacity:1;stroke:#000;stroke-width:.9466083;stroke-linecap:square;stroke-miterlimit:4;stroke-dashoffset:0;stroke-opacity:1"/><path id="path10208-6" d="m 96.417518,197.84014 c -6.7929,0 -17.98557,0 -17.98557,0 v -24.6105 l 17.98557,-10e-4 c 6.792852,0 12.305902,5.51304 12.305902,12.30591 0,6.79284 -5.51305,12.30592 -12.305902,12.30592 z m 16.092342,-12.30592 c 0,1.04505 -0.84815,1.89319 -1.89327,1.89319 -1.04503,0 -1.89317,-0.84814 -1.89317,-1.89319 0,-1.04504 0.84814,-1.89321 1.89317,-1.89321 1.04512,0 1.89327,0.84817 1.89327,1.89321 z m -2.6e-4,0 h 8.51951 m -51.116622,-6.15294 h 8.51954 m -8.51954,12.30588 h 8.51954" style="display:inline;fill:none;fill-opacity:1;stroke:#000;stroke-width:.9466083;stroke-linecap:square;stroke-miterlimit:4;stroke-dashoffset:0;stroke-opacity:1"/><text style="font-style:normal;font-weight:400;font-size:2.70666838px;line-height:1.69166791px;font-family:sans-serif;letter-spacing:0;word-spacing:0;fill:#000;fill-opacity:1;stroke:none;stroke-width:.06766672" id="text92" x="20.82" y="157.182" xml:space="preserve"><tspan id="tspan90" x="20.82" y="157.182" style="font-size:5.96663523px;stroke-width:.06766672">A</tspan></text><path id="path10208-86-7" d="M 44.968346,218.24355 H 26.982802 v -24.61048 l 17.985544,-0.001 c 6.79287,0 12.30592,5.51303 12.30592,12.30591 0,6.79284 -5.51305,12.30592 -12.30592,12.30592 z m 16.09235,-12.30592 c 0,1.04506 -0.84817,1.89323 -1.89321,1.89323 -1.04506,0 -1.89322,-0.84817 -1.89322,-1.89323 0,-1.04503 0.84816,-1.8932 1.89322,-1.8932 1.04504,0 1.89321,0.84817 1.89321,1.8932 z m -2.6e-4,0 h 8.51955 m -50.124819,-6.1057 7.527699,-0.0472 m -7.460169,12.37271 7.460169,-0.0668" style="display:inline;fill:none;fill-opacity:1;stroke:#000;stroke-width:.94660836;stroke-linecap:square;stroke-miterlimit:4;stroke-dashoffset:0;stroke-opacity:1"/><path style="fill:none;stroke:#000;stroke-width:1;stroke-linecap:butt;stroke-linejoin:miter;stroke-miterlimit:4;stroke-dasharray:none;stroke-opacity:1" id="path4047" d="m 70.069081,164.42977 c -0.156593,14.95151 -0.156593,14.95151 -0.156593,14.95151"/><path style="fill:none;stroke:#000;stroke-width:.9892205;stroke-linecap:butt;stroke-linejoin:miter;stroke-miterlimit:4;stroke-dasharray:none;stroke-opacity:1" id="path4047-1" d="m 69.912272,191.68589 c -0.156725,14.61873 -0.156725,14.61873 -0.156725,14.61873"/><text style="font-style:normal;font-weight:400;font-size:2.70666838px;line-height:1.69166791px;font-family:sans-serif;letter-spacing:0;word-spacing:0;fill:#000;fill-opacity:1;stroke:none;stroke-width:.06766672" id="text92-8" x="20.906" y="169.424" xml:space="preserve"><tspan id="tspan90-3" x="20.906" y="169.424" style="font-size:5.96663523px;stroke-width:.06766672">A</tspan></text><text style="font-style:normal;font-weight:400;font-size:2.70666838px;line-height:1.69166791px;font-family:sans-serif;letter-spacing:0;word-spacing:0;fill:#000;fill-opacity:1;stroke:none;stroke-width:.06766672" id="text92-4" x="20.416" y="198.575" xml:space="preserve"><tspan id="tspan90-0" x="20.416" y="198.575" style="font-size:5.96663523px;stroke-width:.06766672">B</tspan></text><text style="font-style:normal;font-weight:400;font-size:2.70666838px;line-height:1.69166791px;font-family:sans-serif;letter-spacing:0;word-spacing:0;fill:#000;fill-opacity:1;stroke:none;stroke-width:.06766672" id="text92-4-3" x="20.421" y="211.001" xml:space="preserve"><tspan id="tspan90-0-7" x="20.421" y="211.001" style="font-size:5.96663523px;stroke-width:.06766672">B</tspan></text><text style="font-style:normal;font-weight:400;font-size:2.70666838px;line-height:1.69166791px;font-family:sans-serif;letter-spacing:0;word-spacing:0;fill:#000;fill-opacity:1;stroke:none;stroke-width:.06766672" id="text92-4-4" x="115.077" y="184.039" xml:space="preserve"><tspan id="tspan90-0-9" x="115.077" y="184.039" style="font-size:5.96663523px;stroke-width:.06766672">Y</tspan></text></g></svg>