<svg xmlns="http://www.w3.org/2000/svg" xmlns:svg="http://www.w3.org/2000/svg" id="svg3788" width="434.511" height="253.479" version="1.1" viewBox="0 0 114.964 67.066"><metadata id="metadata3785"/><g id="layer1" transform="translate(-6.5379168,-151.65091)"><path id="path10208-86" d="M 45.457441,176.73569 H 27.471897 v -24.61048 l 17.985544,-0.001 c 6.79287,0 12.30592,5.51303 12.30592,12.30591 0,6.79284 -5.51305,12.30592 -12.30592,12.30592 z m 16.09235,-12.30592 c 0,1.04506 -0.84817,1.89323 -1.89321,1.89323 -1.04506,0 -1.89322,-0.84817 -1.89322,-1.89323 0,-1.04503 0.84816,-1.8932 1.89322,-1.8932 1.04504,0 1.89321,0.84817 1.89321,1.8932 z m -2.6e-4,0 h 8.51955 m -49.878057,-6.14484 7.280937,-0.008 m -7.450355,12.30589 h 7.450355" style="display:inline;fill:none;fill-opacity:1;stroke:#000;stroke-width:.9466083;stroke-linecap:square;stroke-miterlimit:4;stroke-dashoffset:0;stroke-opacity:1"/><path id="path10208-6" d="m 96.417518,197.84014 c -6.7929,0 -17.98557,0 -17.98557,0 v -24.6105 l 17.98557,-10e-4 c 6.792852,0 12.305902,5.51304 12.305902,12.30591 0,6.79284 -5.51305,12.30592 -12.305902,12.30592 z m 16.092342,-12.30592 c 0,1.04505 -0.84815,1.89319 -1.89327,1.89319 -1.04503,0 -1.89317,-0.84814 -1.89317,-1.89319 0,-1.04504 0.84814,-1.89321 1.89317,-1.89321 1.04512,0 1.89327,0.84817 1.89327,1.89321 z m -2.6e-4,0 h 8.51951 m -51.116622,-6.15294 h 8.51954 m -8.51954,12.30588 h 8.51954" style="display:inline;fill:none;fill-opacity:1;stroke:#000;stroke-width:.9466083;stroke-linecap:square;stroke-miterlimit:4;stroke-dashoffset:0;stroke-opacity:1"/><path id="path10208-86-7" d="M 44.968346,218.24355 H 26.982802 v -24.61048 l 17.985544,-0.001 c 6.79287,0 12.30592,5.51303 12.30592,12.30591 0,6.79284 -5.51305,12.30592 -12.30592,12.30592 z m 16.09235,-12.30592 c 0,1.04506 -0.84817,1.89323 -1.89321,1.89323 -1.04506,0 -1.89322,-0.84817 -1.89322,-1.89323 0,-1.04503 0.84816,-1.8932 1.89322,-1.8932 1.04504,0 1.89321,0.84817 1.89321,1.8932 z m -2.6e-4,0 h 8.51955 m -50.124819,-6.1057 7.527699,-0.0472 m -7.460169,12.37271 7.460169,-0.0668" style="display:inline;fill:none;fill-opacity:1;stroke:#000;stroke-width:.94660836;stroke-linecap:square;stroke-miterlimit:4;stroke-dashoffset:0;stroke-opacity:1"/><path style="fill:none;stroke:#000;stroke-width:1;stroke-linecap:butt;stroke-linejoin:miter;stroke-miterlimit:4;stroke-dasharray:none;stroke-opacity:1" id="path4047" d="m 70.069081,164.42977 c -0.156593,14.95151 -0.156593,14.95151 -0.156593,14.95151"/><path style="fill:none;stroke:#000;stroke-width:.9892205;stroke-linecap:butt;stroke-linejoin:miter;stroke-miterlimit:4;stroke-dasharray:none;stroke-opacity:1" id="path4047-1" d="m 69.912272,191.68589 c -0.156725,14.61873 -0.156725,14.61873 -0.156725,14.61873"/><text style="font-style:normal;font-weight:400;font-size:2.70666838px;line-height:1.69166791px;font-family:sans-serif;letter-spacing:0;word-spacing:0;fill:#000;fill-opacity:1;stroke:none;stroke-width:.06766672" id="text92-8" x="11.268" y="163.187" xml:space="preserve"><tspan id="tspan90-3" x="11.268" y="163.187" style="font-size:5.96663523px;stroke-width:.06766672">A</tspan></text><text style="font-style:normal;font-weight:400;font-size:2.70666838px;line-height:1.69166791px;font-family:sans-serif;letter-spacing:0;word-spacing:0;fill:#000;fill-opacity:1;stroke:none;stroke-width:.06766672" id="text92-4" x="10.446" y="204.953" xml:space="preserve"><tspan id="tspan90-0" x="10.446" y="204.953" style="font-size:5.96663523px;stroke-width:.06766672">B</tspan></text><text style="font-style:normal;font-weight:400;font-size:2.70666838px;line-height:1.69166791px;font-family:sans-serif;letter-spacing:0;word-spacing:0;fill:#000;fill-opacity:1;stroke:none;stroke-width:.06766672" id="text92-4-4" x="115.077" y="184.039" xml:space="preserve"><tspan id="tspan90-0-9" x="115.077" y="184.039" style="font-size:5.96663523px;stroke-width:.06766672">Y</tspan></text><text style="font-style:normal;font-weight:400;font-size:2.70666838px;line-height:1.69166791px;font-family:sans-serif;letter-spacing:0;word-spacing:0;fill:#000;fill-opacity:1;stroke:none;stroke-width:.06766672" id="text92-7" x="29.673" y="208.357" xml:space="preserve"><tspan id="tspan90-5" x="29.673" y="208.357" style="font-size:5.96663523px;stroke-width:.06766672">NAND2</tspan></text><path style="fill:none;stroke:#000;stroke-width:.94064063;stroke-linecap:butt;stroke-linejoin:miter;stroke-miterlimit:4;stroke-dasharray:none;stroke-opacity:1" id="path4047-15" d="m 20.19383,157.86304 c -0.156593,13.22917 -0.156593,13.22917 -0.156593,13.22917"/><path style="fill:none;stroke:#000;stroke-width:.94064063;stroke-linecap:butt;stroke-linejoin:miter;stroke-miterlimit:4;stroke-dasharray:none;stroke-opacity:1" id="path4047-15-7" d="M 19.508071,199.40263 C 19.351478,212.6318 19.351478,212.6318 19.351478,212.6318"/><path style="fill:none;stroke:#000;stroke-width:.94064063;stroke-linecap:butt;stroke-linejoin:miter;stroke-miterlimit:4;stroke-dasharray:none;stroke-opacity:1" id="path4047-15-9" d="M 20.566404,164.21304 C 7.3372332,164.05645 7.3372332,164.05645 7.3372332,164.05645"/><path style="fill:none;stroke:#000;stroke-width:.94064063;stroke-linecap:butt;stroke-linejoin:miter;stroke-miterlimit:4;stroke-dasharray:none;stroke-opacity:1" id="path4047-15-75" d="M 19.772654,206.01721 C 6.5434835,205.86062 6.5434835,205.86062 6.5434835,205.86062"/><text style="font-style:normal;font-weight:400;font-size:2.70666838px;line-height:1.69166791px;font-family:sans-serif;letter-spacing:0;word-spacing:0;fill:#000;fill-opacity:1;stroke:none;stroke-width:.06766672" id="text92-7-6" x="30.24" y="167.346" xml:space="preserve"><tspan id="tspan90-5-9" x="30.24" y="167.346" style="font-size:5.96663523px;stroke-width:.06766672">NAND1</tspan></text><text style="font-style:normal;font-weight:400;font-size:2.70666838px;line-height:1.69166791px;font-family:sans-serif;letter-spacing:0;word-spacing:0;fill:#000;fill-opacity:1;stroke:none;stroke-width:.06766672" id="text92-7-69" x="80.795" y="187.19" xml:space="preserve"><tspan id="tspan90-5-4" x="80.795" y="187.19" style="font-size:5.96663523px;stroke-width:.06766672">NAND3</tspan></text><text style="font-style:normal;font-weight:400;font-size:2.70666838px;line-height:1.69166791px;font-family:sans-serif;letter-spacing:0;word-spacing:0;fill:#000;fill-opacity:1;stroke:none;stroke-width:.06766672" id="text92-8-2" x="63.996" y="163.14" xml:space="preserve"><tspan id="tspan90-3-1" x="63.996" y="163.14" style="font-size:5.96663523px;stroke-width:.06766672">C</tspan></text><text style="font-style:normal;font-weight:400;font-size:2.70666838px;line-height:1.69166791px;font-family:sans-serif;letter-spacing:0;word-spacing:0;fill:#000;fill-opacity:1;stroke:none;stroke-width:.06766672" id="text92-8-2-5" x="63.901" y="204.15" xml:space="preserve"><tspan id="tspan90-3-1-3" x="63.901" y="204.15" style="font-size:5.96663523px;stroke-width:.06766672">D</tspan></text></g></svg>